<svg width="50" height="25" viewBox="0 0 86 65" fill="none" xmlns="http://www.w3.org/2000/svg">
<path d="M53.6213 1.18532L50.7069 0.386337C50.3317 0.261238 49.9622 0.300579 49.6029 0.504028C49.2424 0.707642 48.999 1.01331 48.8739 1.42054L31.3446 62.0912C31.2195 62.4986 31.2587 62.8828 31.4623 63.2426C31.6659 63.6031 31.9709 63.8459 32.3788 63.971L35.2925 64.7703C35.6684 64.8964 36.0366 64.8568 36.397 64.6531C36.7574 64.4485 37.0004 64.1438 37.1253 63.7372L54.655 3.06558C54.78 2.65835 54.7411 2.27417 54.5372 1.91352C54.3334 1.55304 54.0287 1.31025 53.6213 1.18532Z" fill="#2FC18C"/>
<path d="M27.3516 13.0285C27.3516 12.6213 27.1947 12.2607 26.8815 11.9476L24.5314 9.59771C24.2182 9.28447 23.8577 9.12744 23.4505 9.12744C23.0433 9.12744 22.6826 9.28464 22.3695 9.59771L0.470106 31.4971C0.156373 31.8104 0 32.1709 0 32.5781C0 32.9853 0.156867 33.3458 0.470106 33.6589L22.3694 55.5583C22.6824 55.872 23.0424 56.0281 23.4503 56.0281C23.8582 56.0281 24.2182 55.8715 24.5313 55.5583L26.8813 53.2097C27.1945 52.8967 27.3514 52.536 27.3514 52.1283C27.3514 51.7216 27.1945 51.3611 26.8813 51.048L8.41236 32.5781L26.8815 14.1095C27.1952 13.7964 27.3516 13.4358 27.3516 13.0285Z" fill="#2FC18C"/>
<path d="M85.5303 31.4962L63.6303 9.59674C63.3173 9.28366 62.9566 9.12646 62.55 9.12646C62.1422 9.12646 61.7828 9.28366 61.4686 9.59674L59.1195 11.9464C58.8065 12.2597 58.6503 12.6197 58.6503 13.0274C58.6503 13.4351 58.8063 13.7953 59.1195 14.1083L77.589 32.5774L59.1195 51.0475C58.8065 51.3606 58.6503 51.7213 58.6503 52.1278C58.6503 52.5357 58.8063 52.8962 59.1195 53.2093L61.4686 55.5578C61.7828 55.8715 62.1423 56.0276 62.55 56.0276C62.9568 56.0276 63.3173 55.8711 63.6303 55.5578L85.5303 33.6586C85.8435 33.3455 86 32.9843 86 32.5771C86 32.1697 85.8435 31.8092 85.5303 31.4962Z" fill="#2FC18C"/>
</svg>
