<svg width="32" height="32" xmlns="http://www.w3.org/2000/svg">

 <g>
  <title>background</title>
  <rect fill="none" id="canvas_background" height="402" width="582" y="-1" x="-1"/>
 </g>
 <g>
  <title>Layer 1</title>
  <path fill="#ffffff" id="svg_2" d="m16,0c-8.837,0 -16,7.163 -16,16c0,8.837 7.164,16 16,16c8.837,0 16,-7.163 16,-16c0,-8.837 -7.163,-16 -16,-16zm2.067,18.96c0.333,0.289 0.592,1.308 0.592,1.776l0,4.144l-2.365,0l-2.368,0c0,0 0.007,-1.405 0,-2.368c-3.24,0.697 -4.144,-1.776 -4.144,-1.776c-0.592,-1.184 -1.184,-1.776 -1.184,-1.776c-1.184,-0.703 0,-0.592 0,-0.592c1.184,0 1.776,1.184 1.776,1.184c1.039,1.764 2.888,1.48 3.552,1.184c0,-0.592 0.259,-1.487 0.592,-1.776c-2.586,-0.291 -4.738,-1.776 -4.738,-4.736c0,-2.96 0.594,-3.552 1.186,-4.144c-0.12,-0.292 -0.615,-1.37 0.018,-2.96c0,0 1.163,0 2.347,1.776c0.587,-0.587 2.368,-0.592 2.961,-0.592c0.591,0 2.373,0.005 2.959,0.592c1.184,-1.776 2.35,-1.776 2.35,-1.776c0.633,1.59 0.138,2.668 0.018,2.96c0.592,0.592 1.184,1.184 1.184,4.144c0.001,2.96 -2.149,4.445 -4.736,4.736z"/>
 </g>
</svg>