<svg width="512" height="512" xmlns="http://www.w3.org/2000/svg">

 <g>
  <title>background</title>
  <rect fill="none" id="canvas_background" height="402" width="582" y="-1" x="-1"/>
 </g>
 <g>
  <title>Layer 1</title>
  <circle fill="#396f50" id="svg_2" r="251.408005" cy="257.134752" cx="255.999"/>
  <rect transform="matrix(1.5537946,0,0,1.5537946,-140.87332,-132.64552) " y="222.617" x="175.124" width="35.324" id="rect11" height="106.254" fill="#FFFFFF"/>
  <path id="path13-0" fill="#FFFFFF" d="m159.047883,133.646906c-18.779162,0 -31.047924,12.346452 -31.047924,28.527669c0,15.840936 11.895851,28.527669 30.320748,28.527669l0.354265,0c19.138088,0 31.051031,-12.686733 31.051031,-28.527669c-0.354265,-16.181217 -11.911389,-28.527669 -30.678121,-28.527669l0,0z"/>
  <path id="path15" fill="#FFFFFF" d="m320.8181,209.37264c-29.113449,0 -42.154447,16.011853 -49.457282,27.256665l0,-23.375286l-54.872256,0c0.727176,15.486671 0,165.096891 0,165.096891l54.872256,0l0,-92.200618c0,-4.934852 0.354265,-9.869703 1.810171,-13.396817c3.960622,-9.855719 12.994384,-20.065703 28.154758,-20.065703c19.848172,0 27.798939,15.144836 27.798939,37.329915l0,88.333223l54.875364,0l0,-94.675813c0,-50.711194 -27.076425,-74.302458 -63.18195,-74.302458z"/>
 </g>
</svg>