<svg width="50" height="25" viewBox="0 0 70 61" fill="none" xmlns="http://www.w3.org/2000/svg">
<path d="M69.3346 2.46403C69.6728 0.889544 68.1292 -0.438046 66.6235 0.136516L1.30767 25.0703C0.521582 25.3705 0.00162994 26.1239 3.82513e-06 26.9653C-0.00162229 27.8068 0.515348 28.5623 1.30036 28.8654L19.6488 35.9519V58.2722C19.6488 59.2137 20.2953 60.0319 21.2114 60.2497C22.1213 60.4661 23.0702 60.0331 23.4967 59.1869L31.0854 44.1279L49.6048 57.8717C50.7313 58.7078 52.3505 58.1761 52.7604 56.8325C70.0513 0.140989 69.3038 2.60645 69.3346 2.46403ZM53.2115 9.60785L21.3934 32.2677L7.70307 26.9804L53.2115 9.60785ZM23.7141 35.6057L51.4487 15.8542C27.5835 41.0306 28.8299 39.7054 28.7258 39.8455C28.5712 40.0535 28.9948 39.2428 23.7141 49.7218V35.6057ZM49.7128 52.8894L33.4115 40.7917L62.8864 9.69728L49.7128 52.8894Z" fill="#2FC18C"/>
</svg>
