<?xml version="1.0" encoding="UTF-8"?>
<svg xmlns="http://www.w3.org/2000/svg" xmlns:xlink="http://www.w3.org/1999/xlink" width="375pt" height="374.999991pt" viewBox="0 0 375 374.999991" version="1.2">
<defs>
<clipPath id="clip1">
  <path d="M 17 30.703125 L 375 30.703125 L 375 344.109375 L 17 344.109375 Z M 17 30.703125 "/>
</clipPath>
</defs>
<g id="surface1">
<rect x="0" y="0" width="375" height="374.999991" style="fill:rgb(100%,100%,100%);fill-opacity:1;stroke:none;"/>
<rect x="0" y="0" width="375" height="374.999991" style="fill:rgb(100%,100%,100%);fill-opacity:1;stroke:none;"/>
<g clip-path="url(#clip1)" clip-rule="nonzero">
<path style=" stroke:none;fill-rule:nonzero;fill:rgb(78.039551%,92.939758%,90.19928%);fill-opacity:1;" d="M 358.300781 216.613281 C 363.242188 207.234375 366.074219 196.570312 366.074219 185.230469 C 366.074219 156.410156 347.960938 131.875 322.515625 122.210938 C 322.515625 122.179688 322.519531 122.148438 322.519531 122.113281 C 322.519531 71.628906 281.570312 30.703125 231.054688 30.703125 C 188.441406 30.703125 152.738281 59.871094 142.582031 99.292969 C 136.152344 97.179688 129.300781 95.996094 122.167969 95.996094 C 88.664062 95.996094 61.089844 121.210938 57.316406 153.679688 C 34.648438 158.472656 17.636719 178.566406 17.636719 202.640625 C 17.636719 230.285156 40.0625 252.699219 67.722656 252.699219 C 68.496094 252.699219 69.257812 252.648438 70.015625 252.601562 C 70 253.363281 69.902344 254.109375 69.902344 254.875 C 69.902344 304.160156 109.875 344.109375 159.1875 344.109375 C 187.226562 344.109375 212.21875 331.171875 228.589844 310.964844 C 238.074219 320.652344 251.265625 326.699219 265.898438 326.699219 C 286.152344 326.699219 303.675781 315.164062 312.355469 298.324219 C 316.9375 299.785156 321.808594 300.582031 326.875 300.582031 C 353.335938 300.582031 374.785156 279.144531 374.785156 252.699219 C 374.785156 238.285156 368.382812 225.394531 358.300781 216.613281 Z M 358.300781 216.613281 "/>
</g>
<path style=" stroke:none;fill-rule:nonzero;fill:rgb(99.21875%,98.81897%,93.728638%);fill-opacity:1;" d="M 326.332031 211.347656 C 326.332031 211.347656 342.183594 211.347656 353.007812 211.347656 C 363.832031 211.347656 372.605469 202.574219 372.605469 191.757812 C 372.605469 181.605469 364.847656 173.351562 354.945312 172.367188 C 355.042969 171.578125 355.183594 170.808594 355.183594 169.996094 C 355.183594 159.179688 346.410156 150.40625 335.585938 150.40625 C 329.324219 150.40625 323.8125 153.394531 320.222656 157.964844 C 319.613281 146.488281 310.199219 137.347656 298.5625 137.347656 C 286.539062 137.347656 276.785156 147.09375 276.785156 159.113281 C 276.785156 161.054688 277.121094 162.898438 277.601562 164.691406 C 274.804688 161.3125 270.628906 159.113281 265.898438 159.113281 C 258.140625 159.113281 251.8125 164.921875 250.851562 172.410156 C 250.0625 172.316406 249.289062 172.171875 248.476562 172.171875 C 237.652344 172.171875 228.875 180.941406 228.875 191.757812 C 228.875 202.574219 237.652344 211.347656 248.476562 211.347656 C 259.300781 211.347656 289.851562 211.347656 289.851562 211.347656 L 313.265625 211.347656 L 313.265625 213.523438 L 326.332031 213.523438 Z M 326.332031 211.347656 "/>
<path style=" stroke:none;fill-rule:nonzero;fill:rgb(27.839661%,16.859436%,16.079712%);fill-opacity:1;" d="M 298.5625 135.171875 C 285.355469 135.171875 274.609375 145.910156 274.609375 159.113281 C 274.609375 159.183594 274.609375 159.246094 274.609375 159.316406 C 271.988281 157.773438 268.992188 156.9375 265.898438 156.9375 C 257.921875 156.9375 251.042969 162.425781 249.09375 170.015625 C 248.890625 170.003906 248.6875 169.996094 248.476562 169.996094 C 236.46875 169.996094 226.699219 179.757812 226.699219 191.757812 C 226.699219 203.761719 236.46875 213.523438 248.476562 213.523438 L 313.265625 213.523438 C 314.464844 213.523438 315.441406 212.546875 315.441406 211.347656 C 315.441406 210.144531 314.464844 209.171875 313.265625 209.171875 L 248.476562 209.171875 C 238.867188 209.171875 231.054688 201.363281 231.054688 191.757812 C 231.054688 182.15625 238.867188 174.347656 248.476562 174.347656 C 248.984375 174.347656 249.476562 174.421875 249.96875 174.488281 L 250.585938 174.570312 C 250.675781 174.582031 250.761719 174.585938 250.855469 174.585938 C 251.925781 174.585938 252.867188 173.78125 253.011719 172.683594 C 253.84375 166.1875 259.382812 161.289062 265.898438 161.289062 C 269.753906 161.289062 273.402344 163.035156 275.921875 166.078125 C 276.347656 166.589844 276.96875 166.871094 277.601562 166.871094 C 277.941406 166.871094 278.28125 166.792969 278.59375 166.625 C 279.503906 166.160156 279.960938 165.121094 279.699219 164.132812 C 279.199219 162.238281 278.964844 160.644531 278.964844 159.113281 C 278.964844 148.3125 287.757812 139.523438 298.5625 139.523438 C 308.933594 139.523438 317.496094 147.671875 318.050781 158.082031 C 318.097656 158.988281 318.703125 159.765625 319.570312 160.039062 C 319.789062 160.109375 320.011719 160.144531 320.234375 160.144531 C 320.886719 160.144531 321.523438 159.84375 321.941406 159.308594 C 325.296875 155.035156 330.269531 152.582031 335.585938 152.582031 C 345.195312 152.582031 353.007812 160.390625 353.007812 169.996094 C 353.007812 170.503906 352.933594 170.996094 352.867188 171.488281 L 352.785156 172.101562 C 352.714844 172.683594 352.882812 173.269531 353.246094 173.726562 C 353.613281 174.183594 354.148438 174.472656 354.726562 174.53125 C 363.683594 175.421875 370.429688 182.832031 370.429688 191.757812 C 370.429688 201.363281 362.617188 209.171875 353.007812 209.171875 L 326.332031 209.171875 C 325.128906 209.171875 324.152344 210.144531 324.152344 211.347656 C 324.152344 212.546875 325.128906 213.523438 326.332031 213.523438 L 353.007812 213.523438 C 365.015625 213.523438 374.785156 203.761719 374.785156 191.757812 C 374.785156 181.324219 367.429688 172.550781 357.351562 170.53125 C 357.359375 170.351562 357.363281 170.171875 357.363281 169.996094 C 357.363281 157.992188 347.59375 148.230469 335.585938 148.230469 C 330.464844 148.230469 325.597656 150.042969 321.722656 153.296875 C 319.117188 142.832031 309.691406 135.171875 298.5625 135.171875 Z M 298.5625 135.171875 "/>
<path style=" stroke:none;fill-rule:nonzero;fill:rgb(27.839661%,16.859436%,16.079712%);fill-opacity:1;" d="M 292.03125 165.640625 C 285.921875 165.640625 280.667969 169.992188 279.34375 175.832031 C 277.746094 174.867188 275.921875 174.347656 274.066406 174.347656 C 268.828125 174.347656 264.492188 178.253906 263.816406 183.347656 C 262.933594 183.148438 262.089844 183.054688 261.273438 183.054688 C 254.613281 183.054688 249.03125 188.277344 248.5625 194.945312 C 248.519531 195.546875 248.972656 196.070312 249.570312 196.113281 C 249.597656 196.113281 249.621094 196.113281 249.648438 196.113281 C 250.214844 196.113281 250.695312 195.671875 250.734375 195.101562 C 251.121094 189.570312 255.746094 185.230469 261.269531 185.230469 C 262.265625 185.230469 263.316406 185.414062 264.484375 185.78125 C 264.578125 185.8125 264.679688 185.824219 264.773438 185.824219 C 265.015625 185.824219 265.253906 185.738281 265.453125 185.589844 C 265.734375 185.390625 265.898438 185.035156 265.898438 184.6875 C 265.898438 180.183594 269.5625 176.523438 274.066406 176.523438 C 276.011719 176.523438 277.917969 177.253906 279.425781 178.582031 C 279.632812 178.761719 279.886719 178.855469 280.144531 178.855469 C 280.285156 178.855469 280.417969 178.832031 280.550781 178.773438 C 280.933594 178.621094 281.195312 178.265625 281.226562 177.851562 C 281.679688 172.222656 286.421875 167.816406 292.03125 167.816406 C 292.9375 167.816406 293.882812 167.964844 295 168.285156 C 295.101562 168.316406 295.207031 168.328125 295.304688 168.328125 C 295.78125 168.328125 296.207031 168.011719 296.347656 167.535156 C 296.511719 166.957031 296.175781 166.355469 295.597656 166.191406 C 294.28125 165.816406 293.144531 165.640625 292.03125 165.640625 Z M 352.5 172.171875 C 346.722656 172.171875 341.574219 176.074219 339.980469 181.667969 C 339.816406 182.25 340.152344 182.847656 340.730469 183.015625 C 340.835938 183.039062 340.933594 183.054688 341.03125 183.054688 C 341.503906 183.054688 341.941406 182.738281 342.074219 182.261719 C 343.402344 177.605469 347.691406 174.347656 352.5 174.347656 C 353.007812 174.347656 353.5 174.410156 353.988281 174.472656 C 354.039062 174.484375 354.089844 174.488281 354.140625 174.488281 C 354.667969 174.488281 355.136719 174.085938 355.210938 173.542969 C 355.292969 172.945312 354.875 172.398438 354.28125 172.320312 C 353.695312 172.242188 353.105469 172.171875 352.5 172.171875 Z M 352.5 172.171875 "/>
<path style=" stroke:none;fill-rule:nonzero;fill:rgb(100%,100%,100%);fill-opacity:1;" d="M 45.535156 191.757812 L 2.394531 191.757812 C 1.191406 191.757812 0.214844 190.785156 0.214844 189.582031 C 0.214844 188.382812 1.191406 187.40625 2.394531 187.40625 L 45.535156 187.40625 C 46.734375 187.40625 47.710938 188.382812 47.710938 189.582031 C 47.710938 190.785156 46.738281 191.757812 45.535156 191.757812 Z M 59.011719 191.757812 L 54.65625 191.757812 C 53.457031 191.757812 52.480469 190.785156 52.480469 189.582031 C 52.480469 188.382812 53.457031 187.40625 54.65625 187.40625 L 59.011719 187.40625 C 60.214844 187.40625 61.191406 188.382812 61.191406 189.582031 C 61.191406 190.785156 60.21875 191.757812 59.011719 191.757812 Z M 80.75 200.464844 L 41.589844 200.464844 C 40.390625 200.464844 39.414062 199.488281 39.414062 198.289062 C 39.414062 197.085938 40.390625 196.113281 41.589844 196.113281 L 80.75 196.113281 C 81.953125 196.113281 82.929688 197.085938 82.929688 198.289062 C 82.929688 199.488281 81.953125 200.464844 80.75 200.464844 Z M 32.878906 200.464844 L 28.523438 200.464844 C 27.324219 200.464844 26.347656 199.488281 26.347656 198.289062 C 26.347656 197.085938 27.324219 196.113281 28.523438 196.113281 L 32.878906 196.113281 C 34.082031 196.113281 35.058594 197.085938 35.058594 198.289062 C 35.058594 199.488281 34.085938 200.464844 32.878906 200.464844 Z M 19.8125 200.464844 L 11.105469 200.464844 C 9.902344 200.464844 8.925781 199.488281 8.925781 198.289062 C 8.925781 197.085938 9.902344 196.113281 11.105469 196.113281 L 19.8125 196.113281 C 21.015625 196.113281 21.992188 197.085938 21.992188 198.289062 C 21.992188 199.488281 21.019531 200.464844 19.8125 200.464844 Z M 45.945312 209.171875 L 37.234375 209.171875 C 36.035156 209.171875 35.058594 208.195312 35.058594 206.992188 C 35.058594 205.792969 36.035156 204.816406 37.234375 204.816406 L 45.945312 204.816406 C 47.148438 204.816406 48.125 205.792969 48.125 206.992188 C 48.125 208.195312 47.148438 209.171875 45.945312 209.171875 Z M 59.011719 169.996094 C 58.242188 169.996094 55.429688 169.996094 54.65625 169.996094 C 53.457031 169.996094 52.480469 170.96875 52.480469 172.171875 C 52.480469 173.371094 53.457031 174.347656 54.65625 174.347656 C 55.429688 174.347656 58.242188 174.347656 59.011719 174.347656 C 60.214844 174.347656 61.191406 173.371094 61.191406 172.171875 C 61.191406 170.96875 60.214844 169.996094 59.011719 169.996094 Z M 59.011719 178.699219 C 58.242188 178.699219 38.007812 178.699219 37.234375 178.699219 C 36.035156 178.699219 35.058594 179.675781 35.058594 180.875 C 35.058594 182.078125 36.035156 183.054688 37.234375 183.054688 C 38.007812 183.054688 58.242188 183.054688 59.011719 183.054688 C 60.214844 183.054688 61.191406 182.078125 61.191406 180.875 C 61.191406 179.675781 60.214844 178.699219 59.011719 178.699219 Z M 80.789062 187.40625 C 80.019531 187.40625 68.496094 187.40625 67.722656 187.40625 C 66.523438 187.40625 65.546875 188.382812 65.546875 189.582031 C 65.546875 190.785156 66.523438 191.757812 67.722656 191.757812 C 68.496094 191.757812 80.019531 191.757812 80.789062 191.757812 C 81.992188 191.757812 82.96875 190.785156 82.96875 189.582031 C 82.96875 188.382812 81.992188 187.40625 80.789062 187.40625 Z M 294.207031 74.230469 L 250.652344 74.230469 C 249.453125 74.230469 248.476562 73.257812 248.476562 72.054688 C 248.476562 70.855469 249.453125 69.878906 250.652344 69.878906 L 294.207031 69.878906 C 295.410156 69.878906 296.386719 70.855469 296.386719 72.054688 C 296.386719 73.257812 295.410156 74.230469 294.207031 74.230469 Z M 311.628906 74.230469 L 302.917969 74.230469 C 301.71875 74.230469 300.742188 73.257812 300.742188 72.054688 C 300.742188 70.855469 301.71875 69.878906 302.917969 69.878906 L 311.628906 69.878906 C 312.832031 69.878906 313.808594 70.855469 313.808594 72.054688 C 313.808594 73.257812 312.832031 74.230469 311.628906 74.230469 Z M 333.40625 82.9375 L 289.851562 82.9375 C 288.652344 82.9375 287.675781 81.960938 287.675781 80.761719 C 287.675781 79.558594 288.652344 78.585938 289.851562 78.585938 L 333.40625 78.585938 C 334.609375 78.585938 335.585938 79.558594 335.585938 80.761719 C 335.585938 81.960938 334.613281 82.9375 333.40625 82.9375 Z M 281.140625 82.9375 L 276.785156 82.9375 C 275.585938 82.9375 274.609375 81.960938 274.609375 80.761719 C 274.609375 79.558594 275.585938 78.585938 276.785156 78.585938 L 281.140625 78.585938 C 282.34375 78.585938 283.320312 79.558594 283.320312 80.761719 C 283.320312 81.960938 282.34375 82.9375 281.140625 82.9375 Z M 267.53125 82.9375 L 259.363281 82.9375 C 258.164062 82.9375 257.1875 81.960938 257.1875 80.761719 C 257.1875 79.558594 258.164062 78.585938 259.363281 78.585938 L 267.53125 78.585938 C 268.734375 78.585938 269.710938 79.558594 269.710938 80.761719 C 269.710938 81.960938 268.734375 82.9375 267.53125 82.9375 Z M 307.273438 65.527344 L 285.496094 65.527344 C 284.296875 65.527344 283.320312 64.550781 283.320312 63.347656 C 283.320312 62.148438 284.296875 61.171875 285.496094 61.171875 L 307.273438 61.171875 C 308.476562 61.171875 309.453125 62.148438 309.453125 63.347656 C 309.453125 64.550781 308.480469 65.527344 307.273438 65.527344 Z M 294.207031 91.644531 L 285.496094 91.644531 C 284.296875 91.644531 283.320312 90.667969 283.320312 89.464844 C 283.320312 88.265625 284.296875 87.289062 285.496094 87.289062 L 294.207031 87.289062 C 295.410156 87.289062 296.386719 88.265625 296.386719 89.464844 C 296.386719 90.667969 295.410156 91.644531 294.207031 91.644531 Z M 294.207031 91.644531 "/>
<path style=" stroke:none;fill-rule:nonzero;fill:rgb(99.609375%,83.529663%,70.199585%);fill-opacity:1;" d="M 104.746094 248.347656 L 104.746094 126.464844 C 104.746094 107.234375 120.347656 91.644531 139.589844 91.644531 L 261.542969 91.644531 C 280.785156 91.644531 296.386719 107.234375 296.386719 126.464844 L 296.386719 248.347656 C 296.386719 267.578125 280.785156 283.167969 261.542969 283.167969 L 139.589844 283.167969 C 120.347656 283.167969 104.746094 267.578125 104.746094 248.347656 Z M 104.746094 248.347656 "/>
<path style=" stroke:none;fill-rule:nonzero;fill:rgb(83.918762%,56.079102%,32.548523%);fill-opacity:1;" d="M 266.261719 95.808594 L 134.871094 95.808594 C 120.535156 95.808594 108.914062 107.421875 108.914062 121.753906 L 108.914062 151.496094 L 292.222656 151.496094 L 292.222656 121.753906 C 292.21875 107.421875 280.597656 95.808594 266.261719 95.808594 Z M 266.261719 95.808594 "/>
<path style=" stroke:none;fill-rule:nonzero;fill:rgb(27.839661%,16.859436%,16.079712%);fill-opacity:1;" d="M 246.296875 152.582031 L 111.277344 152.582031 C 110.078125 152.582031 109.101562 151.609375 109.101562 150.40625 C 109.101562 149.207031 110.078125 148.230469 111.277344 148.230469 L 246.296875 148.230469 C 247.5 148.230469 248.476562 149.207031 248.476562 150.40625 C 248.476562 151.609375 247.5 152.582031 246.296875 152.582031 Z M 246.296875 152.582031 "/>
<path style=" stroke:none;fill-rule:nonzero;fill:rgb(27.839661%,16.859436%,16.079712%);fill-opacity:1;" d="M 294.207031 152.582031 L 268.074219 152.582031 C 266.875 152.582031 265.898438 151.609375 265.898438 150.40625 C 265.898438 149.207031 266.875 148.230469 268.074219 148.230469 L 294.207031 148.230469 C 295.410156 148.230469 296.386719 149.207031 296.386719 150.40625 C 296.386719 151.609375 295.410156 152.582031 294.207031 152.582031 Z M 294.207031 152.582031 "/>
<path style=" stroke:none;fill-rule:nonzero;fill:rgb(99.609375%,99.21875%,93.728638%);fill-opacity:1;" d="M 200.566406 141.605469 C 199.066406 141.605469 197.566406 141.679688 196.074219 141.824219 C 194.582031 141.972656 193.097656 142.191406 191.625 142.484375 C 190.152344 142.777344 188.699219 143.140625 187.261719 143.578125 C 185.828125 144.011719 184.414062 144.519531 183.027344 145.089844 C 181.640625 145.664062 180.285156 146.304688 178.964844 147.011719 C 177.640625 147.71875 176.355469 148.492188 175.105469 149.324219 C 173.859375 150.15625 172.652344 151.050781 171.492188 152 C 170.332031 152.953125 169.222656 153.960938 168.160156 155.019531 C 167.097656 156.082031 166.09375 157.191406 165.140625 158.351562 C 164.1875 159.511719 163.296875 160.714844 162.460938 161.960938 C 161.628906 163.207031 160.855469 164.492188 160.148438 165.816406 C 159.441406 167.140625 158.800781 168.492188 158.226562 169.878906 C 157.652344 171.265625 157.148438 172.675781 156.710938 174.109375 C 156.277344 175.546875 155.910156 177 155.617188 178.472656 C 155.324219 179.941406 155.105469 181.425781 154.957031 182.917969 C 154.8125 184.410156 154.738281 185.90625 154.738281 187.40625 C 154.738281 188.90625 154.8125 190.402344 154.957031 191.894531 C 155.105469 193.386719 155.324219 194.871094 155.617188 196.339844 C 155.910156 197.8125 156.277344 199.265625 156.710938 200.703125 C 157.148438 202.136719 157.652344 203.546875 158.226562 204.933594 C 158.800781 206.320312 159.441406 207.671875 160.148438 208.996094 C 160.855469 210.320312 161.628906 211.605469 162.460938 212.851562 C 163.296875 214.097656 164.1875 215.300781 165.140625 216.460938 C 166.09375 217.621094 167.097656 218.730469 168.160156 219.792969 C 169.222656 220.851562 170.332031 221.859375 171.492188 222.8125 C 172.652344 223.761719 173.859375 224.65625 175.105469 225.488281 C 176.355469 226.320312 177.640625 227.09375 178.964844 227.800781 C 180.285156 228.507812 181.640625 229.148438 183.027344 229.71875 C 184.414062 230.292969 185.828125 230.800781 187.261719 231.234375 C 188.699219 231.671875 190.152344 232.035156 191.625 232.328125 C 193.097656 232.621094 194.582031 232.839844 196.074219 232.988281 C 197.566406 233.132812 199.066406 233.207031 200.566406 233.207031 C 202.066406 233.207031 203.566406 233.132812 205.058594 232.988281 C 206.550781 232.839844 208.035156 232.621094 209.507812 232.328125 C 210.980469 232.035156 212.433594 231.671875 213.871094 231.234375 C 215.304688 230.800781 216.71875 230.292969 218.105469 229.71875 C 219.492188 229.148438 220.847656 228.507812 222.167969 227.800781 C 223.492188 227.09375 224.777344 226.320312 226.027344 225.488281 C 227.273438 224.65625 228.480469 223.761719 229.640625 222.8125 C 230.800781 221.859375 231.910156 220.851562 232.972656 219.792969 C 234.03125 218.730469 235.039062 217.621094 235.992188 216.460938 C 236.945312 215.300781 237.835938 214.097656 238.671875 212.851562 C 239.503906 211.605469 240.277344 210.320312 240.984375 208.996094 C 241.691406 207.671875 242.332031 206.320312 242.90625 204.933594 C 243.480469 203.546875 243.984375 202.136719 244.421875 200.703125 C 244.855469 199.265625 245.222656 197.8125 245.515625 196.339844 C 245.808594 194.871094 246.027344 193.386719 246.175781 191.894531 C 246.320312 190.402344 246.394531 188.90625 246.394531 187.40625 C 246.394531 185.90625 246.320312 184.410156 246.175781 182.917969 C 246.027344 181.425781 245.808594 179.941406 245.515625 178.472656 C 245.222656 177 244.855469 175.546875 244.421875 174.109375 C 243.984375 172.675781 243.480469 171.265625 242.90625 169.878906 C 242.332031 168.492188 241.691406 167.140625 240.984375 165.816406 C 240.277344 164.492188 239.503906 163.207031 238.671875 161.960938 C 237.835938 160.714844 236.945312 159.511719 235.992188 158.351562 C 235.039062 157.191406 234.03125 156.082031 232.972656 155.019531 C 231.910156 153.960938 230.800781 152.953125 229.640625 152 C 228.480469 151.050781 227.273438 150.15625 226.027344 149.324219 C 224.777344 148.492188 223.492188 147.71875 222.167969 147.011719 C 220.847656 146.304688 219.492188 145.664062 218.105469 145.089844 C 216.71875 144.519531 215.304688 144.011719 213.871094 143.578125 C 212.433594 143.140625 210.980469 142.777344 209.507812 142.484375 C 208.035156 142.191406 206.550781 141.972656 205.058594 141.824219 C 203.566406 141.679688 202.066406 141.605469 200.566406 141.605469 Z M 200.566406 141.605469 "/>
<path style=" stroke:none;fill-rule:nonzero;fill:rgb(27.839661%,16.859436%,16.079712%);fill-opacity:1;" d="M 200.566406 235.378906 C 174.097656 235.378906 152.566406 213.859375 152.566406 187.40625 C 152.566406 160.953125 174.097656 139.433594 200.566406 139.433594 C 227.035156 139.433594 248.566406 160.953125 248.566406 187.40625 C 248.566406 213.859375 227.035156 235.378906 200.566406 235.378906 Z M 200.566406 143.785156 C 176.503906 143.785156 156.921875 163.355469 156.921875 187.40625 C 156.921875 211.457031 176.503906 231.027344 200.566406 231.027344 C 224.628906 231.027344 244.210938 211.457031 244.210938 187.40625 C 244.210938 163.355469 224.628906 143.785156 200.566406 143.785156 Z M 200.566406 143.785156 "/>
<path style=" stroke:none;fill-rule:nonzero;fill:rgb(94.509888%,35.688782%,42.349243%);fill-opacity:1;" d="M 130.878906 93.722656 L 130.6875 93.722656 C 126 93.722656 122.167969 97.554688 122.167969 102.238281 L 122.167969 152.015625 L 130.878906 152.015625 Z M 130.878906 93.722656 "/>
<path style=" stroke:none;fill-rule:nonzero;fill:rgb(56.079102%,61.959839%,71.369934%);fill-opacity:1;" d="M 200.566406 158.257812 C 199.609375 158.257812 198.660156 158.304688 197.707031 158.398438 C 196.757812 158.492188 195.8125 158.632812 194.875 158.820312 C 193.941406 159.003906 193.015625 159.238281 192.101562 159.515625 C 191.1875 159.792969 190.289062 160.113281 189.40625 160.476562 C 188.523438 160.84375 187.660156 161.25 186.820312 161.699219 C 185.976562 162.152344 185.15625 162.640625 184.363281 163.171875 C 183.570312 163.703125 182.804688 164.269531 182.066406 164.875 C 181.328125 165.480469 180.621094 166.121094 179.945312 166.796875 C 179.269531 167.472656 178.628906 168.179688 178.023438 168.914062 C 177.417969 169.652344 176.847656 170.417969 176.316406 171.214844 C 175.785156 172.007812 175.296875 172.824219 174.847656 173.667969 C 174.394531 174.507812 173.988281 175.371094 173.621094 176.253906 C 173.257812 177.132812 172.933594 178.03125 172.65625 178.945312 C 172.378906 179.859375 172.148438 180.785156 171.960938 181.71875 C 171.777344 182.65625 171.636719 183.597656 171.542969 184.550781 C 171.449219 185.5 171.402344 186.453125 171.402344 187.40625 C 171.402344 188.359375 171.449219 189.3125 171.542969 190.261719 C 171.636719 191.214844 171.777344 192.15625 171.960938 193.09375 C 172.148438 194.027344 172.378906 194.953125 172.65625 195.867188 C 172.933594 196.78125 173.257812 197.679688 173.621094 198.558594 C 173.988281 199.441406 174.394531 200.304688 174.847656 201.144531 C 175.296875 201.988281 175.785156 202.804688 176.316406 203.597656 C 176.847656 204.394531 177.417969 205.160156 178.023438 205.898438 C 178.628906 206.632812 179.269531 207.339844 179.945312 208.015625 C 180.621094 208.691406 181.328125 209.332031 182.066406 209.9375 C 182.804688 210.542969 183.570312 211.109375 184.363281 211.640625 C 185.15625 212.171875 185.976562 212.660156 186.820312 213.113281 C 187.660156 213.5625 188.523438 213.96875 189.40625 214.335938 C 190.289062 214.699219 191.1875 215.019531 192.101562 215.296875 C 193.015625 215.574219 193.941406 215.808594 194.875 215.992188 C 195.8125 216.179688 196.757812 216.320312 197.707031 216.414062 C 198.660156 216.507812 199.609375 216.554688 200.566406 216.554688 C 201.523438 216.554688 202.472656 216.507812 203.425781 216.414062 C 204.375 216.320312 205.320312 216.179688 206.257812 215.992188 C 207.191406 215.808594 208.117188 215.574219 209.03125 215.296875 C 209.945312 215.019531 210.84375 214.699219 211.726562 214.335938 C 212.609375 213.96875 213.472656 213.5625 214.3125 213.113281 C 215.15625 212.660156 215.976562 212.171875 216.769531 211.640625 C 217.5625 211.109375 218.328125 210.542969 219.066406 209.9375 C 219.804688 209.332031 220.511719 208.691406 221.1875 208.015625 C 221.863281 207.339844 222.503906 206.632812 223.109375 205.898438 C 223.714844 205.160156 224.285156 204.394531 224.816406 203.597656 C 225.347656 202.804688 225.835938 201.988281 226.285156 201.144531 C 226.738281 200.304688 227.144531 199.441406 227.511719 198.558594 C 227.875 197.679688 228.199219 196.78125 228.476562 195.867188 C 228.753906 194.953125 228.984375 194.027344 229.171875 193.09375 C 229.355469 192.15625 229.496094 191.214844 229.589844 190.261719 C 229.683594 189.3125 229.730469 188.359375 229.730469 187.40625 C 229.730469 186.453125 229.683594 185.5 229.589844 184.550781 C 229.496094 183.597656 229.355469 182.65625 229.171875 181.71875 C 228.984375 180.785156 228.753906 179.859375 228.476562 178.945312 C 228.199219 178.03125 227.875 177.132812 227.511719 176.253906 C 227.144531 175.371094 226.738281 174.507812 226.285156 173.667969 C 225.835938 172.824219 225.347656 172.007812 224.816406 171.214844 C 224.285156 170.417969 223.714844 169.652344 223.109375 168.914062 C 222.503906 168.179688 221.863281 167.472656 221.1875 166.796875 C 220.511719 166.121094 219.804688 165.480469 219.066406 164.875 C 218.328125 164.269531 217.5625 163.703125 216.769531 163.171875 C 215.976562 162.640625 215.15625 162.152344 214.3125 161.699219 C 213.472656 161.25 212.609375 160.84375 211.726562 160.476562 C 210.84375 160.113281 209.945312 159.792969 209.03125 159.515625 C 208.117188 159.238281 207.191406 159.003906 206.257812 158.820312 C 205.320312 158.632812 204.375 158.492188 203.425781 158.398438 C 202.472656 158.304688 201.523438 158.257812 200.566406 158.257812 Z M 200.566406 158.257812 "/>
<path style=" stroke:none;fill-rule:nonzero;fill:rgb(46.669006%,79.60968%,82.348633%);fill-opacity:1;" d="M 185.984375 166.589844 C 185.300781 166.589844 184.625 166.65625 183.953125 166.789062 C 183.28125 166.925781 182.628906 167.121094 182 167.382812 C 181.367188 167.644531 180.765625 167.964844 180.199219 168.34375 C 179.628906 168.722656 179.105469 169.15625 178.621094 169.640625 C 178.136719 170.121094 177.707031 170.648438 177.324219 171.214844 C 176.945312 171.785156 176.625 172.382812 176.363281 173.015625 C 176.101562 173.648438 175.902344 174.296875 175.769531 174.96875 C 175.636719 175.636719 175.570312 176.316406 175.570312 177 C 175.570312 177.683594 175.636719 178.359375 175.769531 179.027344 C 175.902344 179.699219 176.101562 180.351562 176.363281 180.980469 C 176.625 181.613281 176.945312 182.210938 177.324219 182.78125 C 177.707031 183.347656 178.136719 183.875 178.621094 184.359375 C 179.105469 184.839844 179.628906 185.273438 180.199219 185.652344 C 180.765625 186.03125 181.367188 186.351562 182 186.613281 C 182.628906 186.875 183.28125 187.074219 183.953125 187.207031 C 184.625 187.339844 185.300781 187.40625 185.984375 187.40625 C 186.667969 187.40625 187.34375 187.339844 188.015625 187.207031 C 188.6875 187.074219 189.335938 186.875 189.96875 186.613281 C 190.601562 186.351562 191.203125 186.03125 191.769531 185.652344 C 192.339844 185.273438 192.863281 184.839844 193.347656 184.359375 C 193.832031 183.875 194.261719 183.347656 194.644531 182.78125 C 195.023438 182.210938 195.34375 181.613281 195.605469 180.980469 C 195.867188 180.351562 196.066406 179.699219 196.199219 179.027344 C 196.332031 178.359375 196.398438 177.683594 196.398438 177 C 196.398438 176.316406 196.332031 175.636719 196.199219 174.96875 C 196.066406 174.296875 195.867188 173.648438 195.605469 173.015625 C 195.34375 172.382812 195.023438 171.785156 194.644531 171.214844 C 194.261719 170.648438 193.832031 170.121094 193.347656 169.640625 C 192.863281 169.15625 192.339844 168.722656 191.769531 168.34375 C 191.203125 167.964844 190.601562 167.644531 189.96875 167.382812 C 189.335938 167.121094 188.6875 166.925781 188.015625 166.789062 C 187.34375 166.65625 186.667969 166.589844 185.984375 166.589844 Z M 185.984375 166.589844 "/>
<path style=" stroke:none;fill-rule:nonzero;fill:rgb(27.839661%,16.859436%,16.079712%);fill-opacity:1;" d="M 185.984375 189.582031 C 179.039062 189.582031 173.386719 183.9375 173.386719 176.996094 C 173.386719 170.054688 179.039062 164.410156 185.984375 164.410156 C 192.929688 164.410156 198.582031 170.054688 198.582031 176.996094 C 198.582031 183.9375 192.929688 189.582031 185.984375 189.582031 Z M 185.984375 168.765625 C 181.441406 168.765625 177.742188 172.457031 177.742188 177 C 177.742188 181.539062 181.441406 185.234375 185.984375 185.234375 C 190.527344 185.234375 194.226562 181.539062 194.226562 177 C 194.226562 172.457031 190.527344 168.765625 185.984375 168.765625 Z M 185.984375 168.765625 "/>
<path style=" stroke:none;fill-rule:nonzero;fill:rgb(71.759033%,46.669006%,28.239441%);fill-opacity:1;" d="M 246.296875 111.230469 L 272.429688 111.230469 L 272.429688 137.347656 L 246.296875 137.347656 Z M 246.296875 111.230469 "/>
<path style=" stroke:none;fill-rule:nonzero;fill:rgb(27.839661%,16.859436%,16.079712%);fill-opacity:1;" d="M 274.609375 139.523438 L 244.121094 139.523438 L 244.121094 109.054688 L 274.609375 109.054688 Z M 248.476562 135.171875 L 270.253906 135.171875 L 270.253906 113.40625 L 248.476562 113.40625 Z M 248.476562 135.171875 "/>
<path style=" stroke:none;fill-rule:nonzero;fill:rgb(97.648621%,90.19928%,36.079407%);fill-opacity:1;" d="M 130.878906 95.808594 L 139.589844 95.808594 L 139.589844 149.9375 L 130.878906 149.9375 Z M 130.878906 95.808594 "/>
<path style=" stroke:none;fill-rule:nonzero;fill:rgb(63.139343%,82.749939%,63.529968%);fill-opacity:1;" d="M 139.589844 95.808594 L 148.300781 95.808594 L 148.300781 149.9375 L 139.589844 149.9375 Z M 139.589844 95.808594 "/>
<path style=" stroke:none;fill-rule:nonzero;fill:rgb(22.349548%,76.078796%,84.709167%);fill-opacity:1;" d="M 148.300781 95.808594 L 157.011719 95.808594 L 157.011719 149.9375 L 148.300781 149.9375 Z M 148.300781 95.808594 "/>
<path style=" stroke:none;fill-rule:nonzero;fill:rgb(27.839661%,16.859436%,16.079712%);fill-opacity:1;" d="M 263.058594 97.738281 C 278.070312 97.738281 290.289062 109.945312 290.289062 124.953125 L 290.289062 249.859375 C 290.289062 264.871094 278.070312 277.074219 263.058594 277.074219 L 138.074219 277.074219 C 123.0625 277.074219 110.84375 264.867188 110.84375 249.859375 L 110.84375 124.953125 C 110.84375 109.941406 123.0625 97.738281 138.074219 97.738281 L 263.058594 97.738281 M 263.058594 91.644531 L 138.074219 91.644531 C 119.742188 91.644531 104.746094 106.628906 104.746094 124.953125 L 104.746094 249.859375 C 104.746094 268.183594 119.742188 283.167969 138.074219 283.167969 L 263.058594 283.167969 C 281.390625 283.167969 296.386719 268.183594 296.386719 249.859375 L 296.386719 124.953125 C 296.386719 106.628906 281.390625 91.644531 263.058594 91.644531 Z M 263.058594 91.644531 "/>
<path style=" stroke:none;fill-rule:nonzero;fill:rgb(71.759033%,46.669006%,28.239441%);fill-opacity:1;" d="M 149.507812 146.054688 L 126.40625 146.054688 C 123.214844 146.054688 120.628906 148.976562 120.628906 152.582031 C 120.628906 156.191406 123.214844 159.113281 126.40625 159.113281 L 149.507812 159.113281 C 152.699219 159.113281 155.28125 156.191406 155.28125 152.582031 C 155.28125 148.976562 152.699219 146.054688 149.507812 146.054688 Z M 149.507812 146.054688 "/>
<path style=" stroke:none;fill-rule:nonzero;fill:rgb(27.839661%,16.859436%,16.079712%);fill-opacity:1;" d="M 149.507812 161.289062 L 126.402344 161.289062 C 122.015625 161.289062 118.449219 157.382812 118.449219 152.582031 C 118.449219 147.78125 122.015625 143.878906 126.402344 143.878906 L 149.507812 143.878906 C 153.894531 143.878906 157.460938 147.78125 157.460938 152.582031 C 157.460938 157.382812 153.894531 161.289062 149.507812 161.289062 Z M 126.40625 148.230469 C 124.425781 148.230469 122.808594 150.179688 122.808594 152.582031 C 122.808594 154.984375 124.425781 156.9375 126.40625 156.9375 L 149.511719 156.9375 C 151.492188 156.9375 153.109375 154.984375 153.109375 152.582031 C 153.109375 150.179688 151.492188 148.230469 149.511719 148.230469 Z M 126.40625 148.230469 "/>
<path style=" stroke:none;fill-rule:nonzero;fill:rgb(27.839661%,16.859436%,16.079712%);fill-opacity:1;" d="M 224.746094 205.875 C 224.324219 205.875 223.902344 205.757812 223.527344 205.5 C 222.53125 204.832031 222.269531 203.472656 222.945312 202.480469 C 225.953125 198.03125 227.554688 192.8125 227.554688 187.40625 C 227.554688 186.203125 228.527344 185.230469 229.730469 185.230469 C 230.933594 185.230469 231.910156 186.203125 231.910156 187.40625 C 231.910156 193.6875 230.058594 199.742188 226.554688 204.917969 C 226.128906 205.539062 225.445312 205.875 224.746094 205.875 Z M 224.746094 205.875 "/>
<path style=" stroke:none;fill-rule:nonzero;fill:rgb(27.839661%,16.859436%,16.079712%);fill-opacity:1;" d="M 200.566406 218.726562 C 183.285156 218.726562 169.230469 204.675781 169.230469 187.40625 C 169.230469 170.136719 183.289062 156.085938 200.566406 156.085938 C 211.742188 156.085938 222.160156 162.105469 227.746094 171.796875 C 228.34375 172.839844 227.988281 174.171875 226.941406 174.773438 C 225.898438 175.363281 224.566406 175.011719 223.964844 173.972656 C 219.15625 165.625 210.1875 160.441406 200.5625 160.441406 C 185.683594 160.441406 173.578125 172.535156 173.578125 187.40625 C 173.578125 202.277344 185.683594 214.371094 200.5625 214.371094 C 201.765625 214.371094 202.738281 215.347656 202.738281 216.546875 C 202.738281 217.75 201.769531 218.726562 200.566406 218.726562 Z M 200.566406 218.726562 "/>
<path style=" stroke:none;fill-rule:nonzero;fill:rgb(99.21875%,98.81897%,93.728638%);fill-opacity:1;" d="M 137.410156 289.699219 C 137.410156 289.699219 144.238281 289.699219 152.65625 289.699219 C 161.074219 289.699219 167.898438 282.878906 167.898438 274.464844 C 167.898438 266.710938 162.085938 260.386719 154.59375 259.425781 C 154.714844 258.644531 154.832031 257.867188 154.832031 257.050781 C 154.832031 248.636719 148.007812 241.816406 139.589844 241.816406 C 135.09375 241.816406 131.097656 243.796875 128.308594 246.886719 C 126.636719 239.019531 119.65625 233.109375 111.277344 233.109375 C 101.65625 233.109375 93.855469 240.90625 93.855469 250.523438 C 93.855469 251.355469 93.988281 252.152344 94.101562 252.953125 C 92.238281 251.453125 89.902344 250.523438 87.324219 250.523438 C 81.976562 250.523438 77.546875 254.382812 76.632812 259.46875 C 75.851562 259.347656 75.074219 259.226562 74.257812 259.226562 C 65.839844 259.226562 59.011719 266.050781 59.011719 274.464844 C 59.011719 282.878906 65.839844 289.699219 74.257812 289.699219 C 82.675781 289.699219 106.921875 289.699219 106.921875 289.699219 L 106.921875 291.875 L 137.410156 291.875 Z M 137.410156 289.699219 "/>
<path style=" stroke:none;fill-rule:nonzero;fill:rgb(27.839661%,16.859436%,16.079712%);fill-opacity:1;" d="M 145.035156 270.109375 C 144.433594 270.109375 143.945312 269.625 143.945312 269.023438 C 143.945312 263.699219 148.277344 259.367188 153.605469 259.367188 C 153.753906 259.40625 156.816406 259.363281 159.023438 259.960938 C 159.601562 260.117188 159.949219 260.710938 159.789062 261.292969 C 159.632812 261.875 159.035156 262.21875 158.457031 262.058594 C 156.523438 261.535156 153.667969 261.535156 153.609375 261.542969 C 149.480469 261.542969 146.121094 264.898438 146.121094 269.023438 C 146.121094 269.625 145.636719 270.109375 145.035156 270.109375 Z M 115.632812 287.523438 C 115.347656 287.523438 115.066406 287.578125 114.800781 287.6875 C 114.535156 287.796875 114.300781 287.957031 114.09375 288.160156 C 113.890625 288.363281 113.734375 288.597656 113.621094 288.867188 C 113.511719 289.132812 113.457031 289.410156 113.457031 289.699219 C 113.457031 289.988281 113.511719 290.265625 113.621094 290.53125 C 113.734375 290.796875 113.890625 291.035156 114.09375 291.238281 C 114.300781 291.441406 114.535156 291.597656 114.800781 291.710938 C 115.066406 291.820312 115.347656 291.875 115.632812 291.875 C 115.921875 291.875 116.203125 291.820312 116.46875 291.710938 C 116.734375 291.597656 116.96875 291.441406 117.175781 291.238281 C 117.378906 291.035156 117.535156 290.796875 117.648438 290.53125 C 117.757812 290.265625 117.8125 289.988281 117.8125 289.699219 C 117.8125 289.410156 117.757812 289.132812 117.648438 288.867188 C 117.535156 288.597656 117.378906 288.363281 117.175781 288.160156 C 116.96875 287.957031 116.734375 287.796875 116.46875 287.6875 C 116.203125 287.578125 115.921875 287.523438 115.632812 287.523438 Z M 115.632812 287.523438 "/>
<path style=" stroke:none;fill-rule:nonzero;fill:rgb(27.839661%,16.859436%,16.079712%);fill-opacity:1;" d="M 152.65625 291.875 L 137.410156 291.875 C 136.210938 291.875 135.234375 290.898438 135.234375 289.699219 C 135.234375 288.496094 136.210938 287.523438 137.410156 287.523438 L 152.65625 287.523438 C 159.859375 287.523438 165.722656 281.664062 165.722656 274.464844 C 165.722656 267.953125 160.824219 262.414062 154.320312 261.582031 C 153.738281 261.503906 153.210938 261.199219 152.855469 260.730469 C 152.503906 260.261719 152.355469 259.667969 152.445312 259.089844 C 152.546875 258.417969 152.65625 257.75 152.65625 257.050781 C 152.65625 249.851562 146.792969 243.992188 139.589844 243.992188 C 135.886719 243.992188 132.457031 245.539062 129.925781 248.347656 C 129.378906 248.953125 128.527344 249.207031 127.746094 248.992188 C 126.953125 248.777344 126.347656 248.140625 126.179688 247.339844 C 124.695312 240.359375 118.425781 235.289062 111.277344 235.289062 C 102.875 235.289062 96.035156 242.121094 96.035156 250.523438 C 96.035156 251.144531 96.125 251.742188 96.214844 252.34375 C 96.339844 253.226562 95.9375 254.25 95.160156 254.691406 C 94.378906 255.136719 93.433594 255.207031 92.738281 254.648438 C 91.148438 253.375 89.28125 252.699219 87.324219 252.699219 C 83.117188 252.699219 79.519531 255.707031 78.773438 259.855469 C 78.566406 261.015625 77.484375 261.796875 76.296875 261.617188 C 75.625 261.515625 74.953125 261.40625 74.257812 261.40625 C 67.054688 261.40625 61.191406 267.265625 61.191406 274.464844 C 61.191406 281.664062 67.054688 287.523438 74.257812 287.523438 L 106.921875 287.523438 C 108.125 287.523438 109.101562 288.496094 109.101562 289.699219 C 109.101562 290.898438 108.125 291.875 106.921875 291.875 L 74.257812 291.875 C 64.648438 291.875 56.835938 284.066406 56.835938 274.464844 C 56.835938 264.859375 64.648438 257.050781 74.257812 257.050781 C 74.515625 257.050781 74.761719 257.0625 75.015625 257.078125 C 76.820312 251.914062 81.710938 248.347656 87.324219 248.347656 C 88.84375 248.347656 90.324219 248.613281 91.726562 249.128906 C 92.445312 238.976562 100.9375 230.933594 111.277344 230.933594 C 119.253906 230.933594 126.375 235.839844 129.367188 243.007812 C 132.328125 240.84375 135.910156 239.640625 139.589844 239.640625 C 149.199219 239.640625 157.011719 247.449219 157.011719 257.050781 C 157.011719 257.261719 157.007812 257.464844 156.996094 257.671875 C 164.585938 259.621094 170.078125 266.492188 170.078125 274.464844 C 170.078125 284.066406 162.265625 291.875 152.65625 291.875 Z M 152.65625 291.875 "/>
<path style=" stroke:none;fill-rule:nonzero;fill:rgb(27.839661%,16.859436%,16.079712%);fill-opacity:1;" d="M 128.699219 287.523438 C 128.007812 287.523438 125.039062 287.523438 124.34375 287.523438 C 123.144531 287.523438 122.167969 288.496094 122.167969 289.699219 C 122.167969 290.898438 123.144531 291.875 124.34375 291.875 C 125.039062 291.875 128.007812 291.875 128.699219 291.875 C 129.902344 291.875 130.878906 290.898438 130.878906 289.699219 C 130.878906 288.496094 129.902344 287.523438 128.699219 287.523438 Z M 128.699219 287.523438 "/>
</g>
</svg>
