<?xml version="1.0" encoding="UTF-8"?>
<svg xmlns="http://www.w3.org/2000/svg" xmlns:xlink="http://www.w3.org/1999/xlink" width="375pt" height="374.999991pt" viewBox="0 0 375 374.999991" version="1.2">
<g id="surface1">
<rect x="0" y="0" width="375" height="374.999991" style="fill:rgb(100%,100%,100%);fill-opacity:1;stroke:none;"/>
<rect x="0" y="0" width="375" height="374.999991" style="fill:rgb(100%,100%,100%);fill-opacity:1;stroke:none;"/>
<path style=" stroke:none;fill-rule:nonzero;fill:rgb(78.039551%,92.939758%,90.19928%);fill-opacity:1;" d="M 359.894531 215.652344 C 361.226562 212.914062 362.410156 210.03125 363.433594 207.011719 C 375.148438 172.445312 357.433594 131.039062 320.136719 121.046875 C 316.101562 70.410156 280.515625 35.671875 240.328125 29.742188 C 194.328125 22.957031 152.183594 52.179688 138.167969 98.625 C 121.269531 92.636719 104.800781 93.367188 89.28125 102.4375 C 82.238281 105.695312 75.796875 110.5 70.019531 116.820312 C 61.535156 126.097656 56.019531 137.8125 53.773438 150.160156 C 50.445312 150.683594 47.175781 151.210938 44.09375 152.3125 C 26.121094 158.757812 14.78125 172.023438 11.671875 192.007812 C 9.738281 204.449219 13.644531 216.859375 15.824219 221.871094 C 24.429688 241.691406 44.390625 252.921875 64.671875 249.949219 C 65.679688 249.804688 67.148438 250.257812 68.015625 250.988281 C 69.089844 282.660156 84.464844 310.671875 107.535156 326.671875 C 144.550781 352.351562 192.171875 344.441406 222.214844 309.234375 C 235.089844 322.402344 250.410156 328.800781 268.40625 326.476562 C 286.304688 324.167969 300.199219 314.292969 310.339844 298.234375 C 315.023438 299.492188 319.460938 301.308594 324.050781 301.808594 C 342.03125 303.777344 356.632812 296.628906 367.34375 280.457031 C 371.445312 274.269531 375.320312 266.25 375.320312 252.191406 C 375.328125 237.703125 369.574219 224.507812 359.894531 215.652344 Z M 359.894531 215.652344 "/>
<path style=" stroke:none;fill-rule:nonzero;fill:rgb(100%,100%,100%);fill-opacity:1;" d="M 47.015625 180.226562 L 2.394531 180.226562 C 1.164062 180.226562 0.167969 179.230469 0.167969 178.003906 C 0.167969 176.773438 1.164062 175.777344 2.394531 175.777344 L 47.011719 175.777344 C 48.238281 175.777344 49.234375 176.773438 49.234375 178.003906 C 49.234375 179.230469 48.242188 180.226562 47.015625 180.226562 Z M 59.828125 180.226562 L 53.394531 180.226562 C 52.167969 180.226562 51.171875 179.230469 51.171875 178.003906 C 51.171875 176.773438 52.167969 175.777344 53.394531 175.777344 L 59.828125 175.777344 C 61.054688 175.777344 62.050781 176.773438 62.050781 178.003906 C 62.050781 179.230469 61.058594 180.226562 59.828125 180.226562 Z M 77.863281 180.226562 L 66.539062 180.226562 C 65.3125 180.226562 64.316406 179.230469 64.316406 178.003906 C 64.316406 176.773438 65.3125 175.777344 66.539062 175.777344 L 77.863281 175.777344 C 79.09375 175.777344 80.089844 176.773438 80.089844 178.003906 C 80.089844 179.230469 79.09375 180.226562 77.863281 180.226562 Z M 77.863281 188.523438 L 35.089844 188.523438 C 33.859375 188.523438 32.863281 187.527344 32.863281 186.300781 C 32.863281 185.070312 33.859375 184.074219 35.089844 184.074219 L 77.863281 184.074219 C 79.09375 184.074219 80.089844 185.070312 80.089844 186.300781 C 80.089844 187.527344 79.09375 188.523438 77.863281 188.523438 Z M 27.382812 188.523438 L 24.804688 188.523438 C 23.578125 188.523438 22.578125 187.527344 22.578125 186.300781 C 22.578125 185.070312 23.578125 184.074219 24.804688 184.074219 L 27.382812 184.074219 C 28.613281 184.074219 29.609375 185.070312 29.609375 186.300781 C 29.609375 187.527344 28.617188 188.523438 27.382812 188.523438 Z M 16.808594 188.523438 L 10.332031 188.523438 C 9.105469 188.523438 8.109375 187.527344 8.109375 186.300781 C 8.109375 185.070312 9.105469 184.074219 10.332031 184.074219 L 16.808594 184.074219 C 18.039062 184.074219 19.035156 185.070312 19.035156 186.300781 C 19.035156 187.527344 18.042969 188.523438 16.808594 188.523438 Z M 57.449219 171.929688 L 35.089844 171.929688 C 33.859375 171.929688 32.863281 170.933594 32.863281 169.707031 C 32.863281 168.480469 33.859375 167.480469 35.089844 167.480469 L 57.449219 167.480469 C 58.679688 167.480469 59.675781 168.480469 59.675781 169.707031 C 59.675781 170.933594 58.683594 171.929688 57.449219 171.929688 Z M 57.449219 163.632812 L 51.859375 163.632812 C 50.632812 163.632812 49.636719 162.636719 49.636719 161.410156 C 49.636719 160.183594 50.632812 159.1875 51.859375 159.1875 L 57.449219 159.1875 C 58.679688 159.1875 59.675781 160.183594 59.675781 161.410156 C 59.675781 162.636719 58.683594 163.632812 57.449219 163.632812 Z M 42.914062 196.820312 L 35.089844 196.820312 C 33.859375 196.820312 32.863281 195.824219 32.863281 194.59375 C 32.863281 193.367188 33.859375 192.371094 35.089844 192.371094 L 42.914062 192.371094 C 44.140625 192.371094 45.136719 193.367188 45.136719 194.59375 C 45.136719 195.824219 44.140625 196.820312 42.914062 196.820312 Z M 296.238281 80.933594 L 251.621094 80.933594 C 250.390625 80.933594 249.394531 79.9375 249.394531 78.710938 C 249.394531 77.480469 250.390625 76.484375 251.621094 76.484375 L 296.238281 76.484375 C 297.464844 76.484375 298.460938 77.480469 298.460938 78.710938 C 298.460938 79.9375 297.46875 80.933594 296.238281 80.933594 Z M 309.058594 80.933594 L 302.625 80.933594 C 301.398438 80.933594 300.398438 79.9375 300.398438 78.710938 C 300.398438 77.480469 301.398438 76.484375 302.625 76.484375 L 309.058594 76.484375 C 310.285156 76.484375 311.28125 77.480469 311.28125 78.710938 C 311.28125 79.9375 310.285156 80.933594 309.058594 80.933594 Z M 327.089844 80.933594 L 315.765625 80.933594 C 314.539062 80.933594 313.539062 79.9375 313.539062 78.710938 C 313.539062 77.480469 314.539062 76.484375 315.765625 76.484375 L 327.089844 76.484375 C 328.320312 76.484375 329.316406 77.480469 329.316406 78.710938 C 329.316406 79.9375 328.320312 80.933594 327.089844 80.933594 Z M 327.089844 89.230469 L 284.316406 89.230469 C 283.085938 89.230469 282.089844 88.234375 282.089844 87.007812 C 282.089844 85.777344 283.085938 84.78125 284.316406 84.78125 L 327.089844 84.78125 C 328.320312 84.78125 329.316406 85.777344 329.316406 87.007812 C 329.316406 88.234375 328.320312 89.230469 327.089844 89.230469 Z M 276.609375 89.230469 L 274.03125 89.230469 C 272.800781 89.230469 271.804688 88.234375 271.804688 87.007812 C 271.804688 85.777344 272.800781 84.78125 274.03125 84.78125 L 276.609375 84.78125 C 277.839844 84.78125 278.835938 85.777344 278.835938 87.007812 C 278.835938 88.234375 277.84375 89.230469 276.609375 89.230469 Z M 266.035156 89.230469 L 259.558594 89.230469 C 258.332031 89.230469 257.335938 88.234375 257.335938 87.007812 C 257.335938 85.777344 258.332031 84.78125 259.558594 84.78125 L 266.035156 84.78125 C 267.265625 84.78125 268.261719 85.777344 268.261719 87.007812 C 268.261719 88.234375 267.269531 89.230469 266.035156 89.230469 Z M 306.675781 72.640625 L 284.316406 72.640625 C 283.085938 72.640625 282.089844 71.644531 282.089844 70.417969 C 282.089844 69.191406 283.085938 68.195312 284.316406 68.195312 L 306.675781 68.195312 C 307.90625 68.195312 308.902344 69.191406 308.902344 70.417969 C 308.902344 71.644531 307.90625 72.640625 306.675781 72.640625 Z M 306.675781 64.339844 L 301.085938 64.339844 C 299.859375 64.339844 298.859375 63.34375 298.859375 62.117188 C 298.859375 60.890625 299.859375 59.894531 301.085938 59.894531 L 306.675781 59.894531 C 307.90625 59.894531 308.902344 60.890625 308.902344 62.117188 C 308.902344 63.34375 307.90625 64.339844 306.675781 64.339844 Z M 292.140625 97.527344 L 284.316406 97.527344 C 283.085938 97.527344 282.089844 96.53125 282.089844 95.300781 C 282.089844 94.074219 283.085938 93.078125 284.316406 93.078125 L 292.140625 93.078125 C 293.367188 93.078125 294.363281 94.074219 294.363281 95.300781 C 294.363281 96.53125 293.367188 97.527344 292.140625 97.527344 Z M 292.140625 97.527344 "/>
<path style=" stroke:none;fill-rule:nonzero;fill:rgb(99.21875%,98.81897%,93.728638%);fill-opacity:1;" d="M 298.777344 183.933594 C 298.777344 183.933594 346 183.933594 346.289062 183.933594 C 357.199219 183.933594 366.035156 175.09375 366.035156 164.1875 C 366.035156 154.671875 359.304688 146.730469 350.347656 144.863281 C 350.449219 144.03125 350.519531 143.183594 350.519531 142.328125 C 350.519531 131.03125 341.367188 121.871094 330.070312 121.871094 C 323.402344 121.871094 317.496094 125.078125 313.761719 130.019531 C 312.808594 117.445312 301.578125 107.746094 288.4375 109.351562 C 278.828125 110.523438 270.878906 117.953125 269.113281 127.46875 C 268.550781 130.519531 268.609375 133.484375 269.171875 136.261719 C 266.597656 133.488281 262.929688 131.742188 258.84375 131.742188 C 251.371094 131.742188 245.265625 137.5625 244.785156 144.914062 C 241.390625 144.164062 237.699219 144.210938 233.8125 145.671875 C 226.378906 148.460938 221.085938 155.457031 220.777344 163.390625 C 220.339844 174.65625 229.339844 183.929688 240.507812 183.929688 C 241.355469 183.929688 244.335938 183.929688 245.023438 183.929688 L 286.027344 183.929688 "/>
<path style=" stroke:none;fill-rule:nonzero;fill:rgb(27.839661%,16.859436%,16.079712%);fill-opacity:1;" d="M 346.289062 186.15625 L 298.777344 186.15625 C 297.550781 186.15625 296.550781 185.160156 296.550781 183.933594 C 296.550781 182.703125 297.550781 181.707031 298.777344 181.707031 L 346.289062 181.707031 C 355.953125 181.707031 363.8125 173.847656 363.8125 164.1875 C 363.8125 155.933594 357.957031 148.71875 349.894531 147.039062 C 348.761719 146.800781 348.003906 145.738281 348.140625 144.589844 C 348.234375 143.847656 348.296875 143.097656 348.296875 142.328125 C 348.296875 132.277344 340.121094 124.097656 330.066406 124.097656 C 324.320312 124.097656 319.019531 126.742188 315.535156 131.359375 C 314.976562 132.105469 314.027344 132.429688 313.132812 132.152344 C 312.246094 131.890625 311.609375 131.113281 311.542969 130.1875 C 311.125 124.679688 308.429688 119.507812 304.144531 115.996094 C 299.816406 112.445312 294.328125 110.878906 288.707031 111.5625 C 280.042969 112.621094 272.886719 119.332031 271.300781 127.878906 C 270.800781 130.550781 270.820312 133.21875 271.347656 135.824219 C 271.546875 136.800781 271.070312 137.789062 270.1875 138.246094 C 269.304688 138.707031 268.214844 138.515625 267.539062 137.785156 C 265.257812 135.328125 262.167969 133.976562 258.839844 133.976562 C 252.609375 133.976562 247.410156 138.847656 247 145.070312 C 246.957031 145.71875 246.636719 146.316406 246.117188 146.703125 C 245.597656 147.089844 244.929688 147.230469 244.300781 147.09375 C 240.949219 146.355469 237.769531 146.574219 234.589844 147.761719 C 227.921875 150.261719 223.265625 156.582031 223 163.488281 C 222.8125 168.304688 224.542969 172.871094 227.875 176.339844 C 231.210938 179.808594 235.695312 181.71875 240.503906 181.71875 L 286.023438 181.71875 C 287.25 181.71875 288.246094 182.714844 288.246094 183.941406 C 288.246094 185.167969 287.25 186.164062 286.023438 186.164062 L 240.507812 186.164062 C 234.480469 186.164062 228.851562 183.769531 224.671875 179.421875 C 220.492188 175.070312 218.320312 169.355469 218.554688 163.3125 C 218.890625 154.648438 224.707031 146.726562 233.03125 143.597656 C 236.238281 142.398438 239.546875 141.984375 242.910156 142.359375 C 244.519531 134.996094 251.101562 129.527344 258.84375 129.527344 C 261.527344 129.527344 264.15625 130.199219 266.496094 131.445312 C 266.511719 129.992188 266.65625 128.53125 266.925781 127.074219 C 268.867188 116.636719 277.597656 108.441406 288.167969 107.152344 C 295 106.292969 301.6875 108.234375 306.964844 112.5625 C 310.964844 115.839844 313.828125 120.3125 315.183594 125.246094 C 319.269531 121.652344 324.5 119.65625 330.070312 119.65625 C 342.574219 119.65625 352.75 129.832031 352.75 142.335938 C 352.75 142.621094 352.746094 142.90625 352.730469 143.191406 C 361.839844 145.984375 368.265625 154.519531 368.265625 164.199219 C 368.261719 176.300781 358.402344 186.15625 346.289062 186.15625 Z M 346.289062 186.15625 "/>
<path style=" stroke:none;fill-rule:nonzero;fill:rgb(99.21875%,98.81897%,93.728638%);fill-opacity:1;" d="M 287.332031 140.429688 C 280.027344 139.949219 273.742188 144.996094 273.289062 151.699219 C 273.230469 152.53125 273.269531 153.351562 273.390625 154.144531 C 271.980469 152.554688 269.894531 151.476562 267.5 151.316406 C 263.117188 151.027344 259.332031 153.921875 258.785156 157.859375 C 257.988281 157.640625 257.15625 157.496094 256.292969 157.4375 C 249.902344 157.019531 244.398438 161.433594 244.007812 167.296875 "/>
<path style=" stroke:none;fill-rule:nonzero;fill:rgb(27.839661%,16.859436%,16.079712%);fill-opacity:1;" d="M 244.011719 168.410156 C 243.984375 168.410156 243.960938 168.410156 243.9375 168.410156 C 243.324219 168.371094 242.859375 167.84375 242.898438 167.230469 C 243.339844 160.765625 249.332031 155.917969 256.371094 156.335938 C 256.890625 156.371094 257.414062 156.433594 257.941406 156.53125 C 259.097656 152.625 263.089844 149.894531 267.574219 150.214844 C 269.226562 150.320312 270.8125 150.839844 272.175781 151.691406 C 272.175781 151.667969 272.179688 151.648438 272.179688 151.628906 C 272.667969 144.328125 279.5 138.871094 287.40625 139.328125 C 288.019531 139.367188 288.484375 139.898438 288.441406 140.511719 C 288.402344 141.125 287.886719 141.582031 287.257812 141.546875 C 280.53125 141.089844 274.808594 145.699219 274.398438 151.78125 C 274.351562 152.507812 274.382812 153.25 274.492188 153.988281 C 274.570312 154.476562 274.308594 154.957031 273.859375 155.164062 C 273.421875 155.375 272.886719 155.265625 272.558594 154.894531 C 271.292969 153.464844 269.425781 152.570312 267.433594 152.4375 C 263.644531 152.1875 260.359375 154.644531 259.894531 158.023438 C 259.847656 158.339844 259.671875 158.621094 259.402344 158.800781 C 259.132812 158.976562 258.808594 159.03125 258.496094 158.945312 C 257.738281 158.742188 256.976562 158.613281 256.226562 158.5625 C 250.453125 158.195312 245.476562 162.144531 245.121094 167.382812 C 245.078125 167.960938 244.59375 168.410156 244.011719 168.410156 Z M 244.011719 168.410156 "/>
<path style=" stroke:none;fill-rule:nonzero;fill:rgb(99.21875%,98.81897%,93.728638%);fill-opacity:1;" d="M 354.285156 147.175781 C 347.417969 143.941406 339.484375 146.226562 336.558594 152.289062 C 336.191406 153.042969 335.925781 153.820312 335.746094 154.609375 "/>
<path style=" stroke:none;fill-rule:nonzero;fill:rgb(27.839661%,16.859436%,16.079712%);fill-opacity:1;" d="M 335.742188 155.71875 C 335.664062 155.71875 335.578125 155.710938 335.492188 155.695312 C 334.894531 155.554688 334.519531 154.960938 334.65625 154.363281 C 334.859375 153.480469 335.160156 152.617188 335.550781 151.808594 C 338.738281 145.210938 347.363281 142.6875 354.753906 146.175781 C 355.3125 146.4375 355.550781 147.101562 355.289062 147.65625 C 355.027344 148.210938 354.363281 148.449219 353.808594 148.191406 C 347.503906 145.21875 340.214844 147.277344 337.554688 152.785156 C 337.234375 153.441406 336.988281 154.140625 336.824219 154.867188 C 336.710938 155.371094 336.253906 155.71875 335.742188 155.71875 Z M 335.742188 155.71875 "/>
<path style=" stroke:none;fill-rule:nonzero;fill:rgb(0%,42.749023%,93.728638%);fill-opacity:1;" d="M 255.605469 279.253906 L 141.183594 279.253906 C 124.429688 279.253906 110.726562 265.546875 110.726562 248.792969 L 110.726562 134.371094 C 110.726562 117.621094 124.429688 103.914062 141.183594 103.914062 L 255.605469 103.914062 C 272.359375 103.914062 286.0625 117.621094 286.0625 134.371094 L 286.0625 248.792969 C 286.066406 265.546875 272.359375 279.253906 255.605469 279.253906 Z M 255.605469 279.253906 "/>
<path style=" stroke:none;fill-rule:nonzero;fill:rgb(27.839661%,16.859436%,16.079712%);fill-opacity:1;" d="M 255.605469 282.367188 L 141.183594 282.367188 C 122.667969 282.367188 107.609375 267.304688 107.609375 248.792969 L 107.609375 134.371094 C 107.609375 115.859375 122.671875 100.800781 141.183594 100.800781 L 255.605469 100.800781 C 274.121094 100.800781 289.179688 115.863281 289.179688 134.371094 L 289.179688 248.792969 C 289.179688 267.308594 274.121094 282.367188 255.605469 282.367188 Z M 141.183594 107.027344 C 126.101562 107.027344 113.839844 119.292969 113.839844 134.371094 L 113.839844 248.792969 C 113.839844 263.875 126.101562 276.140625 141.183594 276.140625 L 255.605469 276.140625 C 270.683594 276.140625 282.949219 263.875 282.949219 248.792969 L 282.949219 134.371094 C 282.949219 119.292969 270.679688 107.027344 255.605469 107.027344 Z M 141.183594 107.027344 "/>
<path style=" stroke:none;fill-rule:nonzero;fill:rgb(99.21875%,98.81897%,93.328857%);fill-opacity:1;" d="M 248.855469 266.730469 L 147.929688 266.730469 C 134.355469 266.730469 123.246094 255.621094 123.246094 242.046875 L 123.246094 141.121094 C 123.246094 127.542969 134.355469 116.4375 147.929688 116.4375 L 248.855469 116.4375 C 262.433594 116.4375 273.539062 127.542969 273.539062 141.121094 L 273.539062 242.046875 C 273.539062 255.621094 262.433594 266.730469 248.855469 266.730469 Z M 248.855469 266.730469 "/>
<path style=" stroke:none;fill-rule:nonzero;fill:rgb(27.839661%,16.859436%,16.079712%);fill-opacity:1;" d="M 250.703125 268.289062 L 146.085938 268.289062 C 132.632812 268.289062 121.691406 257.34375 121.691406 243.890625 L 121.691406 139.273438 C 121.691406 125.824219 132.632812 114.878906 146.085938 114.878906 L 245.707031 114.878906 C 246.566406 114.878906 247.265625 115.578125 247.265625 116.4375 C 247.265625 117.296875 246.566406 117.992188 245.707031 117.992188 L 146.085938 117.992188 C 134.351562 117.992188 124.804688 127.539062 124.804688 139.273438 L 124.804688 243.886719 C 124.804688 255.621094 134.351562 265.167969 146.085938 265.167969 L 250.703125 265.167969 C 262.4375 265.167969 271.984375 255.621094 271.984375 243.886719 L 271.984375 186.015625 C 271.984375 185.15625 272.683594 184.457031 273.539062 184.457031 C 274.398438 184.457031 275.097656 185.15625 275.097656 186.015625 L 275.097656 243.886719 C 275.097656 257.34375 264.15625 268.289062 250.703125 268.289062 Z M 250.703125 268.289062 "/>
<path style=" stroke:none;fill-rule:nonzero;fill:rgb(27.839661%,16.859436%,16.079712%);fill-opacity:1;" d="M 273.539062 179.226562 C 272.683594 179.226562 271.984375 178.527344 271.984375 177.667969 L 271.984375 166.535156 C 271.984375 165.675781 272.683594 164.976562 273.539062 164.976562 C 274.398438 164.976562 275.097656 165.675781 275.097656 166.535156 L 275.097656 177.667969 C 275.097656 178.527344 274.398438 179.226562 273.539062 179.226562 Z M 273.539062 162.527344 C 272.683594 162.527344 271.984375 161.828125 271.984375 160.96875 L 271.984375 155.40625 C 271.984375 154.546875 272.683594 153.847656 273.539062 153.847656 C 274.398438 153.847656 275.097656 154.546875 275.097656 155.40625 L 275.097656 160.96875 C 275.097656 161.828125 274.398438 162.527344 273.539062 162.527344 Z M 273.539062 162.527344 "/>
<path style=" stroke:none;fill-rule:nonzero;fill:rgb(7.058716%,47.839355%,84.709167%);fill-opacity:1;" d="M 238.851562 199.367188 L 238.851562 226.390625 L 222.921875 226.390625 L 222.699219 199.601562 C 222.699219 192.816406 219.613281 187.992188 213.523438 187.992188 C 208.875 187.992188 206.121094 191.101562 204.902344 194.125 C 204.464844 195.195312 204.335938 196.707031 204.335938 198.214844 L 204.335938 226.390625 L 188.203125 226.390625 C 188.203125 226.390625 188.421875 180.679688 188.203125 175.953125 L 204.335938 175.953125 L 204.335938 183.738281 C 204.300781 183.792969 204.265625 183.855469 204.226562 183.914062 L 204.335938 183.914062 L 204.335938 183.738281 C 206.578125 179.992188 210.671875 175.632812 219.609375 175.632812 C 230.679688 175.609375 238.851562 182.507812 238.851562 199.367188 Z M 169.875 152.167969 C 164.894531 152.167969 161.640625 155.582031 161.640625 160.074219 C 161.640625 164.464844 164.796875 167.984375 169.683594 167.984375 L 169.777344 167.984375 C 174.859375 167.984375 178.011719 164.464844 178.011719 160.074219 C 177.90625 155.585938 174.84375 152.167969 169.875 152.167969 Z M 161.863281 226.390625 L 177.792969 226.390625 L 177.792969 175.953125 L 161.863281 175.953125 Z M 161.863281 226.390625 "/>
<path style=" stroke:none;fill-rule:nonzero;fill:rgb(27.839661%,16.859436%,16.079712%);fill-opacity:1;" d="M 238.851562 227.949219 L 222.921875 227.949219 C 222.070312 227.949219 221.371094 227.261719 221.367188 226.40625 L 221.148438 199.613281 C 221.148438 196.578125 220.40625 189.550781 213.527344 189.550781 C 208.933594 189.550781 206.976562 193.160156 206.351562 194.707031 C 206.050781 195.441406 205.898438 196.621094 205.898438 198.214844 L 205.898438 226.390625 C 205.898438 227.25 205.199219 227.949219 204.339844 227.949219 L 188.207031 227.949219 C 187.792969 227.949219 187.394531 227.785156 187.105469 227.492188 C 186.808594 227.199219 186.644531 226.796875 186.648438 226.382812 C 186.648438 225.925781 186.863281 180.652344 186.648438 176.019531 C 186.632812 175.589844 186.785156 175.183594 187.082031 174.871094 C 187.375 174.5625 187.78125 174.390625 188.207031 174.390625 L 204.339844 174.390625 C 205.199219 174.390625 205.898438 175.089844 205.898438 175.949219 L 205.898438 179.171875 C 209.304688 175.746094 213.828125 174.070312 219.613281 174.070312 C 219.628906 174.070312 219.648438 174.070312 219.660156 174.070312 C 225.535156 174.070312 230.316406 175.867188 233.859375 179.410156 C 238.207031 183.746094 240.410156 190.460938 240.410156 199.363281 L 240.410156 226.386719 C 240.414062 227.25 239.714844 227.949219 238.851562 227.949219 Z M 224.46875 224.835938 L 237.300781 224.835938 L 237.300781 199.367188 C 237.300781 191.320312 235.40625 185.347656 231.664062 181.613281 C 228.71875 178.675781 224.679688 177.183594 219.660156 177.183594 C 219.648438 177.183594 219.628906 177.183594 219.617188 177.183594 C 211.214844 177.183594 207.691406 181.242188 205.777344 184.371094 C 205.332031 185.507812 203.523438 185.726562 202.9375 184.675781 C 202.703125 184.261719 202.632812 183.773438 202.789062 183.34375 L 202.789062 177.503906 L 189.808594 177.503906 C 189.941406 185.84375 189.808594 217.304688 189.777344 224.832031 L 202.789062 224.832031 L 202.789062 198.210938 C 202.789062 196.179688 203.011719 194.648438 203.46875 193.53125 C 205.261719 189.089844 209.03125 186.433594 213.53125 186.433594 C 220.152344 186.433594 224.265625 191.476562 224.265625 199.59375 Z M 177.792969 227.949219 L 161.863281 227.949219 C 161.003906 227.949219 160.308594 227.25 160.308594 226.390625 L 160.308594 175.953125 C 160.308594 175.09375 161.003906 174.394531 161.863281 174.394531 L 177.792969 174.394531 C 178.652344 174.394531 179.351562 175.09375 179.351562 175.953125 L 179.351562 226.390625 C 179.351562 227.25 178.652344 227.949219 177.792969 227.949219 Z M 163.421875 224.835938 L 176.230469 224.835938 L 176.230469 177.507812 L 163.421875 177.507812 Z M 169.78125 169.542969 C 164.125 169.542969 160.085938 165.558594 160.085938 160.074219 C 160.085938 154.589844 164.203125 150.609375 169.875 150.609375 C 175.445312 150.609375 179.433594 154.488281 179.574219 160.035156 C 179.574219 165.558594 175.453125 169.542969 169.78125 169.542969 Z M 169.875 153.726562 C 165.886719 153.726562 163.203125 156.28125 163.203125 160.078125 C 163.203125 163.820312 165.871094 166.433594 169.6875 166.433594 C 173.777344 166.433594 176.460938 163.878906 176.460938 160.078125 C 176.359375 156.238281 173.78125 153.726562 169.875 153.726562 Z M 169.875 153.726562 "/>
<path style=" stroke:none;fill-rule:nonzero;fill:rgb(99.21875%,98.81897%,93.728638%);fill-opacity:1;" d="M 152.695312 290.429688 C 160.300781 290.429688 166.902344 290.429688 166.996094 290.429688 C 175.519531 290.429688 182.429688 283.671875 182.429688 275.324219 C 182.429688 268.046875 177.171875 261.976562 170.167969 260.542969 C 170.25 259.90625 170.308594 259.261719 170.308594 258.601562 C 170.308594 249.964844 163.148438 242.957031 154.324219 242.957031 C 149.109375 242.957031 144.496094 245.410156 141.578125 249.191406 C 140.832031 239.574219 132.054688 232.152344 121.785156 233.378906 C 114.273438 234.28125 108.066406 239.960938 106.679688 247.242188 C 106.238281 249.578125 106.285156 251.839844 106.726562 253.96875 C 104.710938 251.847656 101.847656 250.511719 98.65625 250.511719 C 92.816406 250.511719 88.046875 254.964844 87.667969 260.585938 C 85.019531 260.011719 82.128906 260.050781 79.09375 261.164062 C 73.28125 263.300781 69.144531 268.652344 68.90625 274.71875 C 68.5625 283.335938 75.597656 290.429688 84.328125 290.429688 C 84.992188 290.429688 87.320312 290.429688 87.859375 290.429688 L 119.90625 290.429688 M 126.535156 290.429688 L 127.988281 290.429688 "/>
<path style=" stroke:none;fill-rule:nonzero;fill:rgb(27.839661%,16.859436%,16.079712%);fill-opacity:1;" d="M 166.996094 292.65625 L 152.695312 292.65625 C 151.46875 292.65625 150.472656 291.660156 150.472656 290.429688 C 150.472656 289.203125 151.46875 288.207031 152.695312 288.207031 L 166.996094 288.207031 C 174.28125 288.207031 180.203125 282.429688 180.203125 275.324219 C 180.203125 269.265625 175.796875 263.964844 169.722656 262.722656 C 168.585938 262.492188 167.816406 261.417969 167.960938 260.265625 C 168.035156 259.71875 168.078125 259.167969 168.078125 258.601562 C 168.078125 251.199219 161.910156 245.183594 154.320312 245.183594 C 149.96875 245.183594 145.96875 247.136719 143.332031 250.546875 C 142.769531 251.273438 141.820312 251.578125 140.933594 251.316406 C 140.054688 251.054688 139.425781 250.277344 139.355469 249.359375 C 139.039062 245.296875 137.101562 241.613281 133.898438 238.984375 C 130.589844 236.277344 126.390625 235.0625 122.042969 235.585938 C 115.480469 236.371094 110.058594 241.335938 108.859375 247.652344 C 108.488281 249.621094 108.496094 251.59375 108.898438 253.515625 C 109.097656 254.488281 108.628906 255.476562 107.75 255.9375 C 106.871094 256.398438 105.792969 256.21875 105.105469 255.492188 C 103.417969 253.714844 101.121094 252.730469 98.648438 252.730469 C 94.03125 252.730469 90.183594 256.246094 89.878906 260.734375 C 89.835938 261.378906 89.515625 261.96875 89 262.363281 C 88.484375 262.753906 87.828125 262.894531 87.1875 262.757812 C 84.65625 262.210938 82.253906 262.371094 79.851562 263.246094 C 74.835938 265.09375 71.324219 269.738281 71.121094 274.804688 C 70.984375 278.28125 72.246094 281.59375 74.679688 284.125 C 77.207031 286.753906 80.628906 288.199219 84.320312 288.199219 L 119.898438 288.199219 C 121.125 288.199219 122.121094 289.195312 122.121094 290.421875 C 122.121094 291.648438 121.125 292.648438 119.898438 292.648438 L 84.320312 292.648438 C 79.480469 292.648438 74.796875 290.664062 71.472656 287.207031 C 68.195312 283.792969 66.488281 279.328125 66.675781 274.625 C 66.953125 267.78125 71.632812 261.53125 78.324219 259.070312 C 80.765625 258.175781 83.292969 257.84375 85.832031 258.054688 C 87.308594 252.414062 92.535156 248.277344 98.652344 248.277344 C 100.570312 248.277344 102.449219 248.695312 104.171875 249.476562 C 104.222656 248.589844 104.328125 247.703125 104.496094 246.820312 C 106.054688 238.617188 113.054688 232.179688 121.519531 231.164062 C 127.058594 230.503906 132.472656 232.054688 136.722656 235.539062 C 139.691406 237.976562 141.824219 241.121094 142.945312 244.648438 C 146.132812 242.121094 150.105469 240.726562 154.320312 240.726562 C 164.359375 240.726562 172.527344 248.742188 172.527344 258.59375 C 172.527344 258.683594 172.527344 258.773438 172.527344 258.859375 C 179.660156 261.175781 184.65625 267.8125 184.65625 275.320312 C 184.652344 284.878906 176.734375 292.65625 166.996094 292.65625 Z M 127.984375 292.65625 L 126.53125 292.65625 C 125.300781 292.65625 124.304688 291.660156 124.304688 290.429688 C 124.304688 289.203125 125.300781 288.207031 126.53125 288.207031 L 127.984375 288.207031 C 129.210938 288.207031 130.210938 289.203125 130.210938 290.429688 C 130.210938 291.660156 129.21875 292.65625 127.984375 292.65625 Z M 127.984375 292.65625 "/>
<path style=" stroke:none;fill-rule:nonzero;fill:rgb(27.839661%,16.859436%,16.079712%);fill-opacity:1;" d="M 160.097656 269.113281 C 160.019531 269.113281 159.9375 269.105469 159.851562 269.089844 C 159.253906 268.953125 158.878906 268.359375 159.011719 267.757812 C 159.164062 267.082031 159.394531 266.421875 159.707031 265.800781 C 162.171875 260.804688 168.976562 258.960938 174.875 261.6875 C 175.429688 261.945312 175.675781 262.605469 175.417969 263.164062 C 175.160156 263.722656 174.496094 263.960938 173.941406 263.707031 C 169.132812 261.484375 163.640625 262.863281 161.699219 266.785156 C 161.472656 267.246094 161.300781 267.734375 161.183594 268.242188 C 161.066406 268.757812 160.609375 269.113281 160.097656 269.113281 Z M 139.261719 292.65625 L 134.785156 292.65625 C 133.558594 292.65625 132.5625 291.660156 132.5625 290.429688 C 132.5625 289.203125 133.558594 288.207031 134.785156 288.207031 L 139.257812 288.207031 C 140.484375 288.207031 141.480469 289.203125 141.480469 290.429688 C 141.480469 291.660156 140.488281 292.65625 139.261719 292.65625 Z M 139.261719 292.65625 "/>
</g>
</svg>
