<?xml version="1.0" encoding="UTF-8" standalone="no"?>
<svg
   xmlns:dc="http://purl.org/dc/elements/1.1/"
   xmlns:cc="http://creativecommons.org/ns#"
   xmlns:rdf="http://www.w3.org/1999/02/22-rdf-syntax-ns#"
   xmlns:svg="http://www.w3.org/2000/svg"
   xmlns="http://www.w3.org/2000/svg"
   xmlns:sodipodi="http://sodipodi.sourceforge.net/DTD/sodipodi-0.dtd"
   xmlns:inkscape="http://www.inkscape.org/namespaces/inkscape"
   width="375pt"
   height="374.999991pt"
   viewBox="0 0 375 374.999991"
   version="1.2"
   id="svg56"
   sodipodi:docname="telegram.svg"
   inkscape:version="1.0.2 (e86c870879, 2021-01-15)">
  <metadata
     id="metadata60">
    <rdf:RDF>
      <cc:Work
         rdf:about="">
        <dc:format>image/svg+xml</dc:format>
        <dc:type
           rdf:resource="http://purl.org/dc/dcmitype/StillImage" />
      </cc:Work>
    </rdf:RDF>
  </metadata>
  <sodipodi:namedview
     pagecolor="#ffffff"
     bordercolor="#666666"
     borderopacity="1"
     objecttolerance="10"
     gridtolerance="10"
     guidetolerance="10"
     inkscape:pageopacity="0"
     inkscape:pageshadow="2"
     inkscape:window-width="1920"
     inkscape:window-height="1020"
     id="namedview58"
     showgrid="false"
     inkscape:zoom="1.2091526"
     inkscape:cx="242.94425"
     inkscape:cy="280.45794"
     inkscape:window-x="0"
     inkscape:window-y="28"
     inkscape:window-maximized="1"
     inkscape:current-layer="surface1" />
  <defs
     id="defs5">
    <clipPath
       id="clip1">
      <path
         d="M 17 30.703125 L 375 30.703125 L 375 344.109375 L 17 344.109375 Z M 17 30.703125 "
         id="path2" />
    </clipPath>
  </defs>
  <g
     id="surface1">
    <g
       clip-path="url(#clip1)"
       clip-rule="nonzero"
       id="g13" />
    <path
       style="fill:#47bdd7;fill-opacity:1;fill-rule:nonzero;stroke:none;stroke-width:1.76843"
       d="m 188.00731,8.9917969 c -2.92897,0 -5.85794,0.06908 -8.78691,0.214146 -2.92897,0.145067 -5.85104,0.359214 -8.76618,0.649347 -2.91516,0.2832261 -5.82342,0.6424401 -8.72475,1.0707321 -2.89443,0.428292 -5.78195,0.932574 -8.65566,1.505934 -2.88062,0.566452 -5.7336,1.20889 -8.57967,1.92041 -2.84608,0.711519 -5.66453,1.492117 -8.46915,2.341795 -2.80463,0.849678 -5.58854,1.768436 -8.34481,2.756273 -2.76318,0.987832 -5.49873,2.044752 -8.20664,3.163842 -2.70792,1.11908 -5.38129,2.30726 -8.03395,3.55759 -2.64573,1.25725 -5.26384,2.56976 -7.84743,3.95136 -2.59048,1.38159 -5.139513,2.82535 -7.647093,4.33127 -2.5145,1.50593 -4.99446,3.07404 -7.42605,4.69741 -2.43851,1.63028 -4.83557,3.31582 -7.19118,5.05662 -2.35562,1.74771 -4.66287,3.55069 -6.92867,5.40892 -2.26581,1.85824 -4.48326,3.77175 -6.65236,5.7336 -2.176,1.96877 -4.29675,3.98589 -6.36914,6.05828 -2.07238,2.07239 -4.08949,4.19312 -6.05827,6.36222 -1.96876,2.16909 -3.88226,4.38655 -5.7405,6.65235 -1.85823,2.26581 -3.6612,4.57306 -5.40892,6.92178 -1.74771,2.3556 -3.43325,4.75266 -5.06353,7.18426 -1.63028,2.43851 -3.19147,4.91155 -4.70432,7.41913 -1.50593,2.5145 -2.94968,5.063544 -4.33128,7.647104 -1.38158,2.58358 -2.69409,5.19479 -3.95134,7.84744 -1.25034,2.64573 -2.43851,5.32603 -3.55759,8.02704 -1.126,2.70791 -2.17601,5.44345 -3.16385,8.19973 -0.98784,2.75628 -1.90659,5.53327 -2.75627,8.3379 -0.85658,2.80463 -1.63719,5.62997 -2.34871,8.46914 -0.71151,2.83917 -1.35396,5.69907 -1.92732,8.57277 -0.56644,2.8668 -1.07073,5.75433 -1.49902,8.64875 -0.42829,2.90134 -0.7875,5.80959 -1.0776395,8.72474 -0.29013,2.91516 -0.50429,5.83032 -0.64935,8.75929 -0.13816,2.92206 -0.21414,5.85103 -0.21414,8.78 0,2.92897 0.0759,5.85794 0.21414,8.78001 0.14506,2.92897 0.35922,5.84412 0.64935,8.75927 0.2901395,2.91516 0.6493495,5.8234 1.0776395,8.72475 0.42829,2.89443 0.93258,5.78195 1.49902,8.64875 0.57336,2.87371 1.21581,5.7336 1.92732,8.57276 0.71152,2.83917 1.49213,5.66452 2.34871,8.46915 0.84968,2.80463 1.76843,5.58163 2.75627,8.33789 0.98784,2.75627 2.03785,5.49183 3.16385,8.19974 1.11908,2.70101 2.30725,5.38129 3.55759,8.02704 1.25725,2.64574 2.56976,5.26386 3.95134,7.84743 1.3816,2.58358 2.82535,5.1326 4.33128,7.64019 1.51285,2.5145 3.07404,4.98755 4.70432,7.42605 1.63028,2.4316 3.31582,4.82866 5.06353,7.18427 1.74772,2.3487 3.55069,4.65595 5.40892,6.92176 1.85824,2.26582 3.77174,4.48326 5.7405,6.65236 1.96878,2.16909 3.98589,4.28984 6.05827,6.36222 2.07239,2.07239 4.19314,4.08951 6.36914,6.05827 2.1691,1.96186 4.38655,3.87537 6.65236,5.7336 2.2658,1.85825 4.57305,3.66122 6.92867,5.40892 2.35561,1.74081 4.75267,3.42635 7.19118,5.05662 2.43159,1.62337 4.91155,3.19147 7.42605,4.69741 2.50758,1.50594 5.056613,2.9497 7.647093,4.33129 2.58359,1.38158 5.2017,2.6941 7.84743,3.95135 2.65266,1.25034 5.32603,2.43849 8.03395,3.55759 2.70791,1.11909 5.44346,2.176 8.20664,3.16383 2.75627,0.98784 5.54018,1.9066 8.34481,2.75628 2.80462,0.84967 5.62307,1.63027 8.46915,2.3418 2.84607,0.71152 5.69905,1.35395 8.57967,1.92041 2.87371,0.57337 5.76123,1.07764 8.65566,1.50592 2.90133,0.42831 5.80959,0.78752 8.72475,1.07074 2.91514,0.29013 5.83721,0.50429 8.76618,0.64934 2.92897,0.14508 5.85794,0.21415 8.78691,0.21415 2.92897,0 5.85794,-0.0691 8.78692,-0.21415 2.92896,-0.14505 5.85103,-0.35921 8.76618,-0.64934 2.91516,-0.28322 5.82341,-0.64243 8.72474,-1.07074 2.89443,-0.42828 5.78195,-0.93255 8.65566,-1.50592 2.88062,-0.56646 5.7336,-1.20889 8.57967,-1.92041 2.83917,-0.71153 5.66452,-1.49213 8.46915,-2.3418 2.80463,-0.84968 5.58853,-1.76844 8.34481,-2.75628 2.76318,-0.98783 5.49872,-2.04474 8.20664,-3.16383 2.70792,-1.1191 5.38129,-2.30725 8.03395,-3.55759 2.64574,-1.25725 5.26385,-2.56977 7.84743,-3.95135 2.59048,-1.38159 5.13951,-2.82535 7.6471,-4.33129 2.5145,-1.50594 4.99445,-3.07404 7.42604,-4.69741 2.43851,-1.63027 4.83558,-3.31581 7.19119,-5.05662 2.3556,-1.7477 4.66286,-3.55067 6.92866,-5.40892 2.26582,-1.85823 4.48327,-3.77174 6.65237,-5.7336 2.17599,-1.96876 4.29674,-3.98588 6.36912,-6.05827 2.07238,-2.07238 4.08951,-4.19313 6.05826,-6.36222 1.96878,-2.1691 3.88229,-4.38654 5.74052,-6.65236 1.85824,-2.26581 3.66121,-4.57306 5.40893,-6.92176 1.7477,-2.35561 3.43325,-4.75267 5.06353,-7.18427 1.63027,-2.4385 3.19147,-4.91155 4.70431,-7.42605 1.50593,-2.50759 2.94969,-5.05661 4.33128,-7.64019 1.38159,-2.58357 2.6941,-5.20169 3.95135,-7.84743 1.25034,-2.64575 2.43851,-5.32603 3.55759,-8.02704 1.126,-2.70791 2.17601,-5.44347 3.16385,-8.19974 0.98784,-2.75626 1.90658,-5.53326 2.75627,-8.33789 0.85658,-2.80463 1.63718,-5.62998 2.3487,-8.46915 0.71152,-2.83916 1.35395,-5.69905 1.92732,-8.57276 0.56644,-2.8668 1.07073,-5.75432 1.49902,-8.64875 0.42829,-2.90135 0.7875,-5.80959 1.07765,-8.72475 0.28322,-2.91515 0.50427,-5.8303 0.64934,-8.75927 0.13816,-2.92207 0.21414,-5.85104 0.21414,-8.78001 0,-2.92897 -0.0759,-5.85794 -0.21414,-8.78 -0.14507,-2.92897 -0.36612,-5.84413 -0.64934,-8.75929 -0.29015,-2.91515 -0.64936,-5.8234 -1.07765,-8.72474 -0.42829,-2.89442 -0.93258,-5.78195 -1.49902,-8.64875 -0.57337,-2.8737 -1.2158,-5.7336 -1.92732,-8.57277 -0.71152,-2.83917 -1.49212,-5.66451 -2.3487,-8.46914 -0.84969,-2.80463 -1.76843,-5.58162 -2.75627,-8.3379 -0.98784,-2.75628 -2.03785,-5.49182 -3.16385,-8.19973 -1.11908,-2.70101 -2.30725,-5.38131 -3.55759,-8.02704 -1.25725,-2.65265 -2.56976,-5.26386 -3.95135,-7.84744 -1.38159,-2.58356 -2.82535,-5.132604 -4.33128,-7.647104 -1.51284,-2.50758 -3.07404,-4.98062 -4.70431,-7.41913 -1.63028,-2.4316 -3.31583,-4.82866 -5.06353,-7.18426 -1.74772,-2.34872 -3.55069,-4.65597 -5.40893,-6.92178 -1.85823,-2.2658 -3.77174,-4.48326 -5.74052,-6.65235 -1.96875,-2.1691 -3.98588,-4.28983 -6.05826,-6.36222 -2.07238,-2.07239 -4.19313,-4.08951 -6.36912,-6.05828 -2.1691,-1.96875 -4.38655,-3.87536 -6.65237,-5.7336 -2.2658,-1.85823 -4.57306,-3.66121 -6.92866,-5.40892 -2.35561,-1.7408 -4.75268,-3.42634 -7.19119,-5.05662 -2.43159,-1.62337 -4.91154,-3.19148 -7.42604,-4.69741 -2.50759,-1.50592 -5.05662,-2.94968 -7.6471,-4.33127 -2.58358,-1.3816 -5.20169,-2.69411 -7.84743,-3.95136 -2.65266,-1.25033 -5.32603,-2.43851 -8.03395,-3.55759 -2.70792,-1.11909 -5.44346,-2.17601 -8.20664,-3.163842 -2.75628,-0.987837 -5.54018,-1.906595 -8.34481,-2.756273 -2.80463,-0.849678 -5.62998,-1.630276 -8.46915,-2.341795 -2.84607,-0.71152 -5.69905,-1.353958 -8.57967,-1.92041 -2.87371,-0.57336 -5.76123,-1.077642 -8.65566,-1.505934 -2.90133,-0.428292 -5.80958,-0.787506 -8.72474,-1.0707321 -2.91515,-0.290133 -5.83722,-0.50428 -8.76618,-0.649347 -2.92898,-0.145066 -5.85795,-0.214146 -8.78692,-0.214146 z m 0,0"
       id="path25" />
    <path
       style="fill:#452828;fill-opacity:1;fill-rule:nonzero;stroke:none;stroke-width:1.76843"
       d="M 188.00731,372.32235 C 86.287747,372.32235 3.5374175,289.62036 3.5374175,187.96297 3.5374175,86.305586 86.287747,3.6035959 188.00731,3.6035959 c 101.71957,0 184.46989,82.7019901 184.46989,184.3593741 0,101.65739 -82.75032,184.35938 -184.46989,184.35938 z m 0,-357.942352 c -95.771823,0 -173.686583,77.859498 -173.686583,173.582972 0,95.72345 77.91476,173.58296 173.686583,173.58296 95.77182,0 173.68658,-77.85951 173.68658,-173.58296 0,-95.723474 -77.91476,-173.582972 -173.68658,-173.582972 z m 0,0"
       id="path27" />
    <path
       style="fill:#452828;fill-opacity:1;fill-rule:nonzero;stroke:none;stroke-width:1.76843"
       d="m 331.45089,149.37516 c -1.651,0 -3.17766,-1.06383 -3.68194,-2.72174 -0.64935,-2.11382 -1.34705,-4.21384 -2.0862,-6.27932 -2.89442,-8.06849 -6.54182,-15.92282 -10.84548,-23.36959 -1.07073,-1.83752 -0.4421,-4.19313 1.40232,-5.25695 1.84442,-1.07764 4.19312,-0.44211 5.25695,1.40922 4.53852,7.84052 8.37934,16.12315 11.42575,24.60611 0.78059,2.18292 1.51283,4.40037 2.21055,6.62473 0.62171,2.03784 -0.51811,4.18622 -2.54904,4.80794 -0.37993,0.12434 -0.76679,0.1796 -1.13291,0.1796 z m 0,0"
       id="path29" />
    <path
       style="fill:#452828;fill-opacity:1;fill-rule:nonzero;stroke:none;stroke-width:1.76843"
       d="m 188.00731,342.18986 c -85.08523,0 -154.316693,-68.98279 -154.316693,-153.77098 0,-84.78816 69.217653,-153.764054 154.316693,-153.764054 44.16252,0 86.29412,18.91397 115.59072,51.88562 2.21055,2.47995 4.34511,5.05662 6.39677,7.69545 1.3056,1.67864 1.00165,4.09642 -0.67007,5.39511 -1.67863,1.319424 -4.09642,1.001664 -5.40202,-0.67697 -1.94805,-2.50069 -3.97899,-4.9392 -6.07899,-7.30861 -27.83904,-31.32757 -67.8637,-49.29514 -109.82951,-49.29514 -80.84372,0 -146.614333,65.521914 -146.614333,146.068594 0,80.53981 65.763683,146.06862 146.607433,146.06862 80.84373,0 146.61433,-65.52881 146.61433,-146.06862 0,-7.35005 -0.55264,-14.72083 -1.63718,-21.912 -0.31777,-2.10002 1.12599,-4.06188 3.23292,-4.37965 2.11383,-0.29013 4.06878,1.13291 4.37964,3.22602 1.14671,7.57111 1.72698,15.32874 1.72698,23.06563 0,84.78819 -69.23148,153.77098 -154.31669,153.77098 z m 0,0"
       id="path31" />
    <path
       style="fill:#b3cfe3;fill-opacity:1;fill-rule:nonzero;stroke:none;stroke-width:1.76843"
       d="m 178.75066,247.91016 -30.81637,28.44693 c 0,0 -2.40396,1.84443 -5.04971,0.69079 l 5.89939,-52.8389 z m 0,0"
       id="path41" />
    <path
       style="fill:#452828;fill-opacity:1;fill-rule:nonzero;stroke:none;stroke-width:1.76843"
       d="m 144.68064,279.34133 c -0.82203,0 -1.69244,-0.15888 -2.56285,-0.53882 l -1.29177,-0.55954 6.44511,-57.6952 34.44304,27.25877 -32.47427,29.96668 c -0.96021,0.73225 -2.63884,1.56811 -4.55926,1.56811 z m 5.62999,-51.47114 -5.31222,47.62342 c 0.98784,-0.0967 1.74772,-0.65627 1.75462,-0.66317 l 29.04103,-26.79594 z m 0,0"
       id="path43" />
    <path
       style="fill:#ffffff;fill-opacity:1;fill-rule:nonzero;stroke:none;stroke-width:1.76843"
       d="m 278.2804,106.6564 -33.76606,172.33263 c 0,0 -4.72504,11.95765 -17.71198,6.21024 l -77.92168,-60.4722 -28.3364,-13.86425 -47.699403,-16.24749 c 0,0 -7.32934,-2.62502 -8.03395,-8.35863 -0.71152,-5.74051 8.26191,-8.84908 8.26191,-8.84908 L 262.70298,102.11787 c -0.0138,-0.007 15.57742,-6.935584 15.57742,4.53853 z m 0,0"
       id="path45" />
    <path
       style="fill:#452828;fill-opacity:1;fill-rule:nonzero;stroke:none;stroke-width:1.76843"
       d="m 233.4409,288.68778 c -2.32799,0 -4.81484,-0.58027 -7.41223,-1.73389 L 147.69942,226.24682 119.69459,212.59671 72.216257,196.43212 c -0.36612,-0.13126 -8.47605,-3.10859 -9.31883,-9.94745 -0.89113,-7.20499 9.11159,-10.74877 9.53297,-10.90075 l 189.547243,-75.25521 0.0207,0.0484 c 2.48686,-1.381594 8.83527,-2.880614 12.58629,-1.899684 2.09311,0.55954 5.60925,2.376334 5.60925,8.179014 l -0.0345,0.37303 -33.76606,172.32572 c -0.18652,0.57336 -2.41779,6.09972 -7.9925,8.37934 -1.5612,0.62862 -3.21911,0.95329 -4.95991,0.95329 z m 30.96834,-185.19522 v 0.0207 l -0.99475,0.40066 -189.630133,75.28284 c -0.15888,0.0552 -7.5573,2.76318 -7.06683,6.82506 0.55263,4.47634 6.70761,6.76288 6.76979,6.7836 l 47.664853,16.24059 28.55747,13.95406 78.26707,60.68633 c 3.1362,1.33325 6.27242,1.57502 8.93198,0.49047 4.03423,-1.63717 5.78195,-5.86484 5.80958,-5.9132 l 33.6279,-171.78689 c -0.0484,-2.78392 -1.20889,-3.53688 -1.60264,-3.77866 -2.56975,-1.67172 -7.9096,-0.11744 -10.33429,0.79442 z m 0,0"
       id="path47" />
    <path
       style="fill:#d1e3f0;fill-opacity:1;fill-rule:nonzero;stroke:none;stroke-width:1.76843"
       d="m 142.87767,277.04098 c 0,0 -2.27271,-0.21415 -5.11188,-9.2981 -2.83226,-9.08395 -17.24224,-56.88696 -17.24224,-56.88696 l 114.54072,-73.61803 c 0,0 6.60399,-4.06879 6.37603,0 0,0 1.17435,0.71152 -2.36942,4.06188 -3.53688,3.35035 -89.97605,81.98355 -89.97605,81.98355 z m 0,0"
       id="path49" />
    <path
       style="fill:#452828;fill-opacity:1;fill-rule:nonzero;stroke:none;stroke-width:1.76843"
       d="m 144.57703,279.14101 -1.88587,-0.17271 c -1.61647,-0.16579 -4.10332,-2.12765 -6.76288,-10.65896 -2.83226,-9.07015 -17.24224,-56.89388 -17.24224,-56.89388 l -0.42139,-1.3885 1.22271,-0.7875 114.53381,-73.61803 c 1.58191,-0.97403 5.42964,-3.0395 7.77835,-1.63718 0.53881,0.32467 1.36778,1.0431 1.54046,2.48686 l 0.20034,0.93257 c 0.15197,1.46449 -0.81514,3.09476 -3.13621,5.2984 -3.39871,3.22601 -81.52762,74.295 -89.47176,81.52762 z m -21.79458,-67.44924 c 2.39015,7.91652 14.27182,47.31946 16.82086,55.47084 0.69769,2.21746 1.34014,3.84082 1.89969,5.02208 l 5.76813,-49.84085 0.53191,-0.49047 c 0.8635,-0.78751 86.46681,-78.66082 89.94842,-81.95591 0.96021,-0.90494 1.46448,-1.52666 1.71317,-1.89969 l 0.0345,-0.61481 c -0.81514,0.15888 -2.27272,0.77369 -3.44016,1.48521 z m 0,0"
       id="path51" />
    <path
       style="fill:#452828;fill-opacity:1;fill-rule:nonzero;stroke:none;stroke-width:1.76843"
       d="m 233.43399,290.6151 c -2.59049,0 -5.33293,-0.63553 -8.19283,-1.89277 l -0.70461,-0.40067 -47.06386,-34.04928 -26.92719,24.90315 c -0.67698,0.53882 -4.38655,3.23983 -8.80764,1.5543 -4.33819,-1.2158 -6.79742,-9.1185 -7.66092,-11.85405 -2.45922,-7.86814 -13.62938,-44.89476 -16.54454,-54.58661 l -0.13125,-0.42831 -45.813513,-15.60505 c -0.44902,-0.16579 -9.6297,-3.54377 -10.61062,-11.54317 -1.05692,-8.57278 9.60896,-12.53103 10.82475,-12.95242 l 189.464353,-75.220664 0.0207,0.0622 c 3.42634,-1.8237 10.13397,-2.96352 13.78827,-1.98949 4.48325,1.20199 7.04611,4.856294 7.04611,10.037264 l -33.82823,173.07178 c -0.46283,1.34012 -2.94278,7.23261 -9.15304,9.78164 -1.80988,0.73916 -3.70956,1.11218 -5.70596,1.11218 z m -4.71814,-8.78691 c 2.88753,1.20889 5.38821,1.39541 7.44678,0.57336 3.26746,-1.31251 4.75958,-4.82866 4.77339,-4.8701 l 33.55882,-171.62111 c -0.0691,-0.12435 -0.19341,-1.22271 -0.7806,-1.59574 -1.42304,-0.93257 -5.13951,-0.24178 -7.93722,0.71843 l -191.281153,75.946 c -2.31416,0.81515 -6.07208,3.06022 -5.85794,4.78722 0.33159,2.72863 4.19313,4.73884 5.51946,5.22932 l 49.336573,16.81394 0.63554,1.69935 c 0,0.007 0.29704,0.93258 0.7875,2.56285 2.92207,9.68494 14.07149,46.6563 16.53072,54.52445 1.49903,4.80793 2.67339,6.48656 3.06713,6.9494 0.46975,0.13816 1.05692,-0.23487 1.07074,-0.24178 l 31.29301,-28.97194 z m 0,0"
       id="path53" />
  </g>
</svg>
