<?xml version="1.0" encoding="UTF-8"?>
<svg xmlns="http://www.w3.org/2000/svg" xmlns:xlink="http://www.w3.org/1999/xlink" width="375pt" height="374.999991pt" viewBox="0 0 375 374.999991" version="1.2">
<defs>
<clipPath id="clip1">
  <path d="M 17 30.703125 L 375 30.703125 L 375 344.109375 L 17 344.109375 Z M 17 30.703125 "/>
</clipPath>
</defs>
<g id="surface1">
<rect x="0" y="0" width="375" height="374.999991" style="fill:rgb(100%,100%,100%);fill-opacity:1;stroke:none;"/>
<rect x="0" y="0" width="375" height="374.999991" style="fill:rgb(100%,100%,100%);fill-opacity:1;stroke:none;"/>
<g clip-path="url(#clip1)" clip-rule="nonzero">
<path style=" stroke:none;fill-rule:nonzero;fill:rgb(78.039551%,92.939758%,90.19928%);fill-opacity:1;" d="M 358.300781 216.613281 C 363.242188 207.234375 366.074219 196.570312 366.074219 185.230469 C 366.074219 156.410156 347.960938 131.875 322.515625 122.210938 C 322.515625 122.179688 322.519531 122.148438 322.519531 122.113281 C 322.519531 71.628906 281.570312 30.703125 231.054688 30.703125 C 188.441406 30.703125 152.738281 59.871094 142.582031 99.292969 C 136.152344 97.179688 129.300781 95.996094 122.167969 95.996094 C 88.664062 95.996094 61.089844 121.210938 57.316406 153.679688 C 34.648438 158.472656 17.636719 178.566406 17.636719 202.640625 C 17.636719 230.285156 40.0625 252.699219 67.722656 252.699219 C 68.496094 252.699219 69.257812 252.648438 70.015625 252.601562 C 70 253.363281 69.902344 254.109375 69.902344 254.875 C 69.902344 304.160156 109.875 344.109375 159.1875 344.109375 C 187.226562 344.109375 212.21875 331.171875 228.589844 310.964844 C 238.074219 320.652344 251.265625 326.699219 265.898438 326.699219 C 286.152344 326.699219 303.675781 315.164062 312.355469 298.324219 C 316.9375 299.785156 321.808594 300.582031 326.875 300.582031 C 353.335938 300.582031 374.785156 279.144531 374.785156 252.699219 C 374.785156 238.285156 368.382812 225.394531 358.300781 216.613281 Z M 358.300781 216.613281 "/>
</g>
<path style=" stroke:none;fill-rule:nonzero;fill:rgb(99.21875%,98.81897%,93.728638%);fill-opacity:1;" d="M 315.984375 233.109375 L 315.984375 235.289062 L 329.050781 235.289062 L 329.050781 233.109375 C 329.050781 233.109375 347.527344 233.109375 353.007812 233.109375 C 363.832031 233.109375 372.605469 224.339844 372.605469 213.523438 C 372.605469 203.367188 364.847656 195.113281 354.945312 194.132812 C 355.042969 193.34375 355.183594 192.574219 355.183594 191.757812 C 355.183594 180.941406 346.410156 172.171875 335.585938 172.171875 C 329.324219 172.171875 323.8125 175.15625 320.222656 179.726562 C 319.613281 168.253906 310.199219 159.113281 298.5625 159.113281 C 286.539062 159.113281 276.785156 168.859375 276.785156 180.875 C 276.785156 182.816406 277.121094 184.664062 277.601562 186.457031 C 274.804688 183.074219 270.628906 180.875 265.898438 180.875 C 258.140625 180.875 251.8125 186.6875 250.851562 194.175781 C 250.0625 194.078125 249.289062 193.933594 248.476562 193.933594 C 237.652344 193.933594 228.875 202.707031 228.875 213.523438 C 228.875 224.339844 237.652344 233.109375 248.476562 233.109375 C 259.300781 233.109375 289.851562 233.109375 289.851562 233.109375 Z M 315.984375 233.109375 "/>
<path style=" stroke:none;fill-rule:nonzero;fill:rgb(27.839661%,16.859436%,16.079712%);fill-opacity:1;" d="M 298.5625 156.9375 C 285.355469 156.9375 274.609375 167.675781 274.609375 180.875 C 274.609375 180.945312 274.609375 181.011719 274.609375 181.082031 C 271.988281 179.535156 268.992188 178.699219 265.898438 178.699219 C 257.921875 178.699219 251.042969 184.191406 249.09375 191.78125 C 248.890625 191.769531 248.6875 191.757812 248.476562 191.757812 C 236.46875 191.757812 226.699219 201.523438 226.699219 213.523438 C 226.699219 225.523438 236.46875 235.289062 248.476562 235.289062 L 315.984375 235.289062 C 317.1875 235.289062 318.164062 234.3125 318.164062 233.109375 C 318.164062 231.910156 317.1875 230.933594 315.984375 230.933594 L 248.476562 230.933594 C 238.867188 230.933594 231.054688 223.125 231.054688 213.523438 C 231.054688 203.921875 238.867188 196.113281 248.476562 196.113281 C 248.984375 196.113281 249.476562 196.1875 249.96875 196.25 L 250.585938 196.332031 C 250.675781 196.347656 250.761719 196.351562 250.855469 196.351562 C 251.925781 196.351562 252.867188 195.546875 253.011719 194.449219 C 253.84375 187.949219 259.382812 183.054688 265.898438 183.054688 C 269.753906 183.054688 273.402344 184.800781 275.921875 187.839844 C 276.347656 188.355469 276.96875 188.632812 277.601562 188.632812 C 277.941406 188.632812 278.28125 188.554688 278.59375 188.390625 C 279.503906 187.925781 279.960938 186.882812 279.699219 185.894531 C 279.199219 184.003906 278.964844 182.410156 278.964844 180.875 C 278.964844 170.078125 287.757812 161.289062 298.5625 161.289062 C 308.933594 161.289062 317.496094 169.4375 318.050781 179.84375 C 318.097656 180.75 318.703125 181.53125 319.570312 181.804688 C 319.789062 181.875 320.011719 181.910156 320.234375 181.910156 C 320.886719 181.910156 321.523438 181.609375 321.941406 181.074219 C 325.296875 176.796875 330.269531 174.347656 335.585938 174.347656 C 345.195312 174.347656 353.007812 182.15625 353.007812 191.757812 C 353.007812 192.269531 352.933594 192.761719 352.867188 193.253906 L 352.785156 193.867188 C 352.714844 194.449219 352.882812 195.03125 353.246094 195.488281 C 353.613281 195.945312 354.148438 196.238281 354.726562 196.292969 C 363.683594 197.1875 370.429688 204.59375 370.429688 213.523438 C 370.429688 223.125 362.617188 230.933594 353.007812 230.933594 L 329.050781 230.933594 C 327.851562 230.933594 326.875 231.910156 326.875 233.109375 C 326.875 234.3125 327.851562 235.289062 329.050781 235.289062 L 353.007812 235.289062 C 365.015625 235.289062 374.785156 225.523438 374.785156 213.523438 C 374.785156 203.089844 367.429688 194.3125 357.351562 192.292969 C 357.359375 192.117188 357.363281 191.9375 357.363281 191.757812 C 357.363281 179.757812 347.59375 169.996094 335.585938 169.996094 C 330.464844 169.996094 325.597656 171.804688 321.722656 175.0625 C 319.117188 164.597656 309.691406 156.9375 298.5625 156.9375 Z M 298.5625 156.9375 "/>
<path style=" stroke:none;fill-rule:nonzero;fill:rgb(27.839661%,16.859436%,16.079712%);fill-opacity:1;" d="M 292.03125 187.40625 C 285.921875 187.40625 280.667969 191.753906 279.34375 197.597656 C 277.746094 196.628906 275.921875 196.113281 274.066406 196.113281 C 268.828125 196.113281 264.492188 200.015625 263.816406 205.113281 C 262.933594 204.914062 262.089844 204.816406 261.273438 204.816406 C 254.613281 204.816406 249.03125 210.042969 248.5625 216.710938 C 248.519531 217.308594 248.972656 217.832031 249.570312 217.875 C 249.597656 217.875 249.621094 217.875 249.648438 217.875 C 250.214844 217.875 250.695312 217.4375 250.734375 216.867188 C 251.121094 211.332031 255.746094 206.992188 261.269531 206.992188 C 262.265625 206.992188 263.316406 207.175781 264.484375 207.546875 C 264.578125 207.578125 264.679688 207.589844 264.773438 207.589844 C 265.015625 207.589844 265.253906 207.503906 265.453125 207.355469 C 265.734375 207.15625 265.898438 206.796875 265.898438 206.449219 C 265.898438 201.949219 269.5625 198.289062 274.066406 198.289062 C 276.011719 198.289062 277.917969 199.019531 279.425781 200.347656 C 279.632812 200.527344 279.886719 200.621094 280.144531 200.621094 C 280.285156 200.621094 280.417969 200.59375 280.550781 200.539062 C 280.933594 200.386719 281.195312 200.03125 281.226562 199.617188 C 281.679688 193.988281 286.421875 189.582031 292.03125 189.582031 C 292.9375 189.582031 293.882812 189.730469 295 190.046875 C 295.101562 190.078125 295.207031 190.09375 295.304688 190.09375 C 295.78125 190.09375 296.207031 189.773438 296.347656 189.300781 C 296.511719 188.722656 296.175781 188.121094 295.597656 187.953125 C 294.28125 187.582031 293.144531 187.40625 292.03125 187.40625 Z M 352.5 193.933594 C 346.722656 193.933594 341.574219 197.839844 339.980469 203.433594 C 339.816406 204.011719 340.152344 204.613281 340.730469 204.777344 C 340.835938 204.804688 340.933594 204.816406 341.03125 204.816406 C 341.503906 204.816406 341.941406 204.503906 342.074219 204.027344 C 343.402344 199.367188 347.691406 196.113281 352.5 196.113281 C 353.007812 196.113281 353.5 196.171875 353.988281 196.238281 C 354.039062 196.246094 354.089844 196.25 354.140625 196.25 C 354.667969 196.25 355.136719 195.851562 355.210938 195.308594 C 355.292969 194.710938 354.875 194.160156 354.28125 194.082031 C 353.695312 194.003906 353.105469 193.933594 352.5 193.933594 Z M 352.5 193.933594 "/>
<path style=" stroke:none;fill-rule:nonzero;fill:rgb(100%,100%,100%);fill-opacity:1;" d="M 45.945312 191.757812 L 2.394531 191.757812 C 1.191406 191.757812 0.214844 190.785156 0.214844 189.582031 C 0.214844 188.382812 1.191406 187.40625 2.394531 187.40625 L 45.945312 187.40625 C 47.148438 187.40625 48.125 188.382812 48.125 189.582031 C 48.125 190.785156 47.152344 191.757812 45.945312 191.757812 Z M 59.011719 191.757812 L 54.65625 191.757812 C 53.457031 191.757812 52.480469 190.785156 52.480469 189.582031 C 52.480469 188.382812 53.457031 187.40625 54.65625 187.40625 L 59.011719 187.40625 C 60.214844 187.40625 61.191406 188.382812 61.191406 189.582031 C 61.191406 190.785156 60.21875 191.757812 59.011719 191.757812 Z M 80.75 200.464844 L 41.589844 200.464844 C 40.390625 200.464844 39.414062 199.488281 39.414062 198.289062 C 39.414062 197.085938 40.390625 196.113281 41.589844 196.113281 L 80.75 196.113281 C 81.953125 196.113281 82.929688 197.085938 82.929688 198.289062 C 82.929688 199.488281 81.953125 200.464844 80.75 200.464844 Z M 32.878906 200.464844 L 28.523438 200.464844 C 27.324219 200.464844 26.347656 199.488281 26.347656 198.289062 C 26.347656 197.085938 27.324219 196.113281 28.523438 196.113281 L 32.878906 196.113281 C 34.082031 196.113281 35.058594 197.085938 35.058594 198.289062 C 35.058594 199.488281 34.085938 200.464844 32.878906 200.464844 Z M 19.8125 200.464844 L 11.105469 200.464844 C 9.902344 200.464844 8.925781 199.488281 8.925781 198.289062 C 8.925781 197.085938 9.902344 196.113281 11.105469 196.113281 L 19.8125 196.113281 C 21.015625 196.113281 21.992188 197.085938 21.992188 198.289062 C 21.992188 199.488281 21.019531 200.464844 19.8125 200.464844 Z M 45.945312 209.171875 L 37.234375 209.171875 C 36.035156 209.171875 35.058594 208.195312 35.058594 206.992188 C 35.058594 205.792969 36.035156 204.816406 37.234375 204.816406 L 45.945312 204.816406 C 47.148438 204.816406 48.125 205.792969 48.125 206.992188 C 48.125 208.195312 47.148438 209.171875 45.945312 209.171875 Z M 59.011719 169.996094 C 58.242188 169.996094 55.429688 169.996094 54.65625 169.996094 C 53.457031 169.996094 52.480469 170.96875 52.480469 172.171875 C 52.480469 173.371094 53.457031 174.347656 54.65625 174.347656 C 55.429688 174.347656 58.242188 174.347656 59.011719 174.347656 C 60.214844 174.347656 61.191406 173.371094 61.191406 172.171875 C 61.191406 170.96875 60.214844 169.996094 59.011719 169.996094 Z M 59.011719 178.699219 C 58.242188 178.699219 38.007812 178.699219 37.234375 178.699219 C 36.035156 178.699219 35.058594 179.675781 35.058594 180.875 C 35.058594 182.078125 36.035156 183.054688 37.234375 183.054688 C 38.007812 183.054688 58.242188 183.054688 59.011719 183.054688 C 60.214844 183.054688 61.191406 182.078125 61.191406 180.875 C 61.191406 179.675781 60.214844 178.699219 59.011719 178.699219 Z M 80.789062 187.40625 C 80.019531 187.40625 68.496094 187.40625 67.722656 187.40625 C 66.523438 187.40625 65.546875 188.382812 65.546875 189.582031 C 65.546875 190.785156 66.523438 191.757812 67.722656 191.757812 C 68.496094 191.757812 80.019531 191.757812 80.789062 191.757812 C 81.992188 191.757812 82.96875 190.785156 82.96875 189.582031 C 82.96875 188.382812 81.992188 187.40625 80.789062 187.40625 Z M 80.789062 187.40625 "/>
<path style=" stroke:none;fill-rule:nonzero;fill:rgb(100%,100%,100%);fill-opacity:1;" d="M 294.207031 74.230469 L 250.652344 74.230469 C 249.453125 74.230469 248.476562 73.257812 248.476562 72.054688 C 248.476562 70.855469 249.453125 69.878906 250.652344 69.878906 L 294.207031 69.878906 C 295.410156 69.878906 296.386719 70.855469 296.386719 72.054688 C 296.386719 73.257812 295.410156 74.230469 294.207031 74.230469 Z M 311.628906 74.230469 L 302.917969 74.230469 C 301.71875 74.230469 300.742188 73.257812 300.742188 72.054688 C 300.742188 70.855469 301.71875 69.878906 302.917969 69.878906 L 311.628906 69.878906 C 312.832031 69.878906 313.808594 70.855469 313.808594 72.054688 C 313.808594 73.257812 312.832031 74.230469 311.628906 74.230469 Z M 333.40625 82.9375 L 289.851562 82.9375 C 288.652344 82.9375 287.675781 81.960938 287.675781 80.761719 C 287.675781 79.558594 288.652344 78.585938 289.851562 78.585938 L 333.40625 78.585938 C 334.609375 78.585938 335.585938 79.558594 335.585938 80.761719 C 335.585938 81.960938 334.613281 82.9375 333.40625 82.9375 Z M 281.140625 82.9375 L 276.785156 82.9375 C 275.585938 82.9375 274.609375 81.960938 274.609375 80.761719 C 274.609375 79.558594 275.585938 78.585938 276.785156 78.585938 L 281.140625 78.585938 C 282.34375 78.585938 283.320312 79.558594 283.320312 80.761719 C 283.320312 81.960938 282.34375 82.9375 281.140625 82.9375 Z M 267.945312 82.9375 L 259.363281 82.9375 C 258.164062 82.9375 257.1875 81.960938 257.1875 80.761719 C 257.1875 79.558594 258.164062 78.585938 259.363281 78.585938 L 267.945312 78.585938 C 269.148438 78.585938 270.125 79.558594 270.125 80.761719 C 270.125 81.960938 269.148438 82.9375 267.945312 82.9375 Z M 307.273438 65.527344 L 285.496094 65.527344 C 284.296875 65.527344 283.320312 64.550781 283.320312 63.347656 C 283.320312 62.148438 284.296875 61.171875 285.496094 61.171875 L 307.273438 61.171875 C 308.476562 61.171875 309.453125 62.148438 309.453125 63.347656 C 309.453125 64.550781 308.480469 65.527344 307.273438 65.527344 Z M 294.207031 91.644531 L 285.496094 91.644531 C 284.296875 91.644531 283.320312 90.667969 283.320312 89.464844 C 283.320312 88.265625 284.296875 87.289062 285.496094 87.289062 L 294.207031 87.289062 C 295.410156 87.289062 296.386719 88.265625 296.386719 89.464844 C 296.386719 90.667969 295.410156 91.644531 294.207031 91.644531 Z M 294.207031 91.644531 "/>
<path style=" stroke:none;fill-rule:nonzero;fill:rgb(28.239441%,74.508667%,84.709167%);fill-opacity:1;" d="M 204.921875 86.203125 C 203.265625 86.203125 201.609375 86.242188 199.953125 86.324219 C 198.296875 86.40625 196.644531 86.527344 194.996094 86.691406 C 193.347656 86.851562 191.703125 87.054688 190.0625 87.296875 C 188.425781 87.539062 186.792969 87.824219 185.167969 88.148438 C 183.539062 88.46875 181.925781 88.832031 180.316406 89.234375 C 178.707031 89.636719 177.113281 90.078125 175.527344 90.558594 C 173.941406 91.039062 172.367188 91.558594 170.808594 92.117188 C 169.246094 92.675781 167.699219 93.273438 166.167969 93.90625 C 164.636719 94.539062 163.125 95.210938 161.625 95.917969 C 160.128906 96.628906 158.648438 97.371094 157.1875 98.152344 C 155.722656 98.933594 154.28125 99.75 152.863281 100.601562 C 151.441406 101.453125 150.039062 102.339844 148.664062 103.257812 C 147.285156 104.179688 145.929688 105.132812 144.597656 106.117188 C 143.265625 107.105469 141.960938 108.125 140.679688 109.175781 C 139.398438 110.226562 138.144531 111.308594 136.917969 112.417969 C 135.6875 113.53125 134.488281 114.671875 133.316406 115.84375 C 132.144531 117.015625 131.003906 118.214844 129.890625 119.441406 C 128.777344 120.667969 127.695312 121.921875 126.644531 123.203125 C 125.59375 124.484375 124.574219 125.789062 123.585938 127.117188 C 122.597656 128.449219 121.644531 129.804688 120.722656 131.179688 C 119.800781 132.558594 118.917969 133.957031 118.0625 135.375 C 117.210938 136.796875 116.394531 138.238281 115.613281 139.699219 C 114.832031 141.160156 114.089844 142.636719 113.378906 144.136719 C 112.671875 145.632812 112 147.148438 111.367188 148.675781 C 110.730469 150.207031 110.136719 151.753906 109.578125 153.3125 C 109.019531 154.871094 108.5 156.441406 108.019531 158.027344 C 107.535156 159.613281 107.09375 161.210938 106.691406 162.816406 C 106.289062 164.421875 105.925781 166.039062 105.601562 167.664062 C 105.28125 169.285156 104.996094 170.917969 104.753906 172.554688 C 104.511719 174.195312 104.308594 175.839844 104.144531 177.488281 C 103.980469 179.136719 103.859375 180.785156 103.777344 182.441406 C 103.699219 184.09375 103.65625 185.75 103.65625 187.40625 C 103.65625 189.0625 103.699219 190.71875 103.777344 192.371094 C 103.859375 194.027344 103.980469 195.675781 104.144531 197.324219 C 104.308594 198.972656 104.511719 200.617188 104.753906 202.257812 C 104.996094 203.894531 105.28125 205.527344 105.601562 207.148438 C 105.925781 208.773438 106.289062 210.390625 106.691406 211.996094 C 107.09375 213.601562 107.535156 215.199219 108.019531 216.785156 C 108.5 218.371094 109.019531 219.941406 109.578125 221.5 C 110.136719 223.058594 110.730469 224.605469 111.367188 226.136719 C 112 227.664062 112.671875 229.179688 113.378906 230.675781 C 114.089844 232.171875 114.832031 233.652344 115.613281 235.113281 C 116.394531 236.574219 117.210938 238.015625 118.0625 239.433594 C 118.917969 240.855469 119.800781 242.253906 120.722656 243.632812 C 121.644531 245.007812 122.597656 246.363281 123.585938 247.695312 C 124.574219 249.023438 125.59375 250.328125 126.644531 251.609375 C 127.695312 252.890625 128.777344 254.144531 129.890625 255.371094 C 131.003906 256.597656 132.144531 257.796875 133.316406 258.96875 C 134.488281 260.140625 135.6875 261.28125 136.917969 262.394531 C 138.144531 263.503906 139.398438 264.585938 140.679688 265.636719 C 141.960938 266.6875 143.265625 267.707031 144.597656 268.695312 C 145.929688 269.679688 147.285156 270.632812 148.664062 271.554688 C 150.039062 272.472656 151.441406 273.359375 152.863281 274.210938 C 154.28125 275.0625 155.722656 275.878906 157.1875 276.660156 C 158.648438 277.441406 160.128906 278.183594 161.625 278.894531 C 163.125 279.601562 164.636719 280.273438 166.167969 280.90625 C 167.699219 281.539062 169.246094 282.136719 170.808594 282.695312 C 172.367188 283.253906 173.941406 283.773438 175.527344 284.253906 C 177.113281 284.734375 178.707031 285.175781 180.316406 285.578125 C 181.925781 285.980469 183.539062 286.34375 185.167969 286.664062 C 186.792969 286.988281 188.425781 287.273438 190.0625 287.515625 C 191.703125 287.757812 193.347656 287.960938 194.996094 288.121094 C 196.644531 288.285156 198.296875 288.40625 199.953125 288.488281 C 201.609375 288.570312 203.265625 288.609375 204.921875 288.609375 C 206.578125 288.609375 208.234375 288.570312 209.890625 288.488281 C 211.546875 288.40625 213.199219 288.285156 214.847656 288.121094 C 216.496094 287.960938 218.140625 287.757812 219.78125 287.515625 C 221.417969 287.273438 223.050781 286.988281 224.675781 286.664062 C 226.304688 286.34375 227.917969 285.980469 229.527344 285.578125 C 231.132812 285.175781 232.730469 284.734375 234.316406 284.253906 C 235.902344 283.773438 237.476562 283.253906 239.035156 282.695312 C 240.597656 282.136719 242.144531 281.539062 243.675781 280.90625 C 245.207031 280.273438 246.71875 279.601562 248.21875 278.894531 C 249.714844 278.183594 251.195312 277.441406 252.65625 276.660156 C 254.121094 275.878906 255.5625 275.0625 256.980469 274.210938 C 258.402344 273.359375 259.804688 272.472656 261.179688 271.554688 C 262.558594 270.632812 263.914062 269.679688 265.246094 268.695312 C 266.578125 267.707031 267.882812 266.6875 269.164062 265.636719 C 270.445312 264.585938 271.699219 263.503906 272.925781 262.394531 C 274.15625 261.28125 275.355469 260.140625 276.527344 258.96875 C 277.699219 257.796875 278.839844 256.597656 279.953125 255.371094 C 281.066406 254.144531 282.148438 252.890625 283.199219 251.609375 C 284.25 250.328125 285.269531 249.023438 286.257812 247.695312 C 287.246094 246.363281 288.199219 245.007812 289.121094 243.632812 C 290.042969 242.253906 290.925781 240.855469 291.78125 239.433594 C 292.632812 238.015625 293.449219 236.574219 294.230469 235.113281 C 295.011719 233.652344 295.753906 232.171875 296.464844 230.675781 C 297.171875 229.179688 297.84375 227.664062 298.476562 226.136719 C 299.113281 224.605469 299.707031 223.058594 300.265625 221.5 C 300.824219 219.941406 301.34375 218.371094 301.824219 216.785156 C 302.308594 215.199219 302.75 213.601562 303.152344 211.996094 C 303.554688 210.390625 303.917969 208.773438 304.242188 207.148438 C 304.5625 205.527344 304.847656 203.894531 305.089844 202.257812 C 305.332031 200.617188 305.535156 198.972656 305.699219 197.324219 C 305.859375 195.675781 305.984375 194.027344 306.066406 192.371094 C 306.144531 190.71875 306.1875 189.0625 306.1875 187.40625 C 306.1875 185.75 306.144531 184.09375 306.066406 182.441406 C 305.984375 180.785156 305.859375 179.136719 305.699219 177.488281 C 305.535156 175.839844 305.332031 174.195312 305.089844 172.554688 C 304.847656 170.917969 304.5625 169.285156 304.242188 167.664062 C 303.917969 166.039062 303.554688 164.421875 303.152344 162.816406 C 302.75 161.210938 302.308594 159.613281 301.824219 158.027344 C 301.34375 156.441406 300.824219 154.871094 300.265625 153.3125 C 299.707031 151.753906 299.113281 150.207031 298.476562 148.675781 C 297.84375 147.148438 297.171875 145.632812 296.464844 144.136719 C 295.753906 142.636719 295.011719 141.160156 294.230469 139.699219 C 293.449219 138.238281 292.632812 136.796875 291.78125 135.375 C 290.925781 133.957031 290.042969 132.558594 289.121094 131.179688 C 288.199219 129.804688 287.246094 128.449219 286.257812 127.117188 C 285.269531 125.789062 284.25 124.484375 283.199219 123.203125 C 282.148438 121.921875 281.066406 120.667969 279.953125 119.441406 C 278.839844 118.214844 277.699219 117.015625 276.527344 115.84375 C 275.355469 114.671875 274.15625 113.53125 272.925781 112.417969 C 271.699219 111.304688 270.445312 110.226562 269.164062 109.175781 C 267.882812 108.125 266.578125 107.105469 265.246094 106.117188 C 263.914062 105.132812 262.558594 104.179688 261.179688 103.257812 C 259.804688 102.339844 258.402344 101.453125 256.980469 100.601562 C 255.5625 99.75 254.121094 98.933594 252.65625 98.152344 C 251.195312 97.371094 249.714844 96.628906 248.21875 95.917969 C 246.71875 95.210938 245.207031 94.539062 243.675781 93.90625 C 242.144531 93.273438 240.597656 92.675781 239.035156 92.117188 C 237.476562 91.558594 235.902344 91.039062 234.316406 90.558594 C 232.730469 90.078125 231.132812 89.636719 229.527344 89.234375 C 227.917969 88.832031 226.304688 88.46875 224.675781 88.148438 C 223.050781 87.824219 221.417969 87.539062 219.78125 87.296875 C 218.140625 87.054688 216.496094 86.851562 214.847656 86.691406 C 213.199219 86.527344 211.546875 86.40625 209.890625 86.324219 C 208.234375 86.242188 206.578125 86.203125 204.921875 86.203125 Z M 204.921875 86.203125 "/>
<path style=" stroke:none;fill-rule:nonzero;fill:rgb(27.839661%,16.859436%,16.079712%);fill-opacity:1;" d="M 204.921875 291.65625 C 147.402344 291.65625 100.609375 244.890625 100.609375 187.40625 C 100.609375 129.921875 147.402344 83.15625 204.921875 83.15625 C 262.441406 83.15625 309.234375 129.921875 309.234375 187.40625 C 309.234375 244.890625 262.441406 291.65625 204.921875 291.65625 Z M 204.921875 89.25 C 150.765625 89.25 106.707031 133.277344 106.707031 187.40625 C 106.707031 241.535156 150.765625 285.5625 204.921875 285.5625 C 259.078125 285.5625 303.136719 241.535156 303.136719 187.40625 C 303.136719 133.277344 259.078125 89.25 204.921875 89.25 Z M 204.921875 89.25 "/>
<path style=" stroke:none;fill-rule:nonzero;fill:rgb(27.839661%,16.859436%,16.079712%);fill-opacity:1;" d="M 286.035156 165.585938 C 285.101562 165.585938 284.238281 164.984375 283.953125 164.046875 C 283.585938 162.851562 283.191406 161.664062 282.773438 160.496094 C 281.136719 155.933594 279.074219 151.492188 276.640625 147.28125 C 276.035156 146.242188 276.390625 144.910156 277.433594 144.308594 C 278.476562 143.699219 279.804688 144.058594 280.40625 145.105469 C 282.972656 149.539062 285.144531 154.222656 286.867188 159.019531 C 287.308594 160.253906 287.722656 161.507812 288.117188 162.765625 C 288.46875 163.917969 287.824219 165.132812 286.675781 165.484375 C 286.460938 165.554688 286.242188 165.585938 286.035156 165.585938 Z M 286.035156 165.585938 "/>
<path style=" stroke:none;fill-rule:nonzero;fill:rgb(27.839661%,16.859436%,16.079712%);fill-opacity:1;" d="M 204.921875 274.617188 C 156.808594 274.617188 117.660156 235.609375 117.660156 187.664062 C 117.660156 139.71875 156.800781 100.714844 204.921875 100.714844 C 229.894531 100.714844 253.71875 111.410156 270.285156 130.054688 C 271.535156 131.457031 272.742188 132.914062 273.902344 134.40625 C 274.640625 135.355469 274.46875 136.722656 273.523438 137.457031 C 272.574219 138.203125 271.207031 138.023438 270.46875 137.074219 C 269.367188 135.660156 268.21875 134.28125 267.03125 132.941406 C 251.289062 115.226562 228.65625 105.066406 204.925781 105.066406 C 159.210938 105.066406 122.019531 142.117188 122.019531 187.664062 C 122.019531 233.207031 159.207031 270.261719 204.921875 270.261719 C 250.636719 270.261719 287.828125 233.207031 287.828125 187.664062 C 287.828125 183.507812 287.515625 179.339844 286.902344 175.273438 C 286.722656 174.085938 287.539062 172.976562 288.730469 172.796875 C 289.925781 172.632812 291.03125 173.4375 291.207031 174.621094 C 291.855469 178.902344 292.183594 183.289062 292.183594 187.664062 C 292.183594 235.609375 253.035156 274.617188 204.921875 274.617188 Z M 204.921875 274.617188 "/>
<path style=" stroke:none;fill-rule:nonzero;fill:rgb(99.21875%,98.81897%,93.728638%);fill-opacity:1;" d="M 137.410156 289.699219 C 137.410156 289.699219 144.238281 289.699219 152.65625 289.699219 C 161.074219 289.699219 167.898438 282.878906 167.898438 274.464844 C 167.898438 266.710938 162.085938 260.386719 154.59375 259.425781 C 154.714844 258.644531 154.832031 257.867188 154.832031 257.050781 C 154.832031 248.636719 148.007812 241.816406 139.589844 241.816406 C 135.09375 241.816406 131.097656 243.796875 128.308594 246.886719 C 126.636719 239.019531 119.65625 233.109375 111.277344 233.109375 C 101.65625 233.109375 93.855469 240.90625 93.855469 250.523438 C 93.855469 251.355469 93.988281 252.152344 94.101562 252.953125 C 92.238281 251.453125 89.902344 250.523438 87.324219 250.523438 C 81.976562 250.523438 77.546875 254.382812 76.632812 259.46875 C 75.851562 259.347656 75.074219 259.226562 74.257812 259.226562 C 65.839844 259.226562 59.011719 266.050781 59.011719 274.464844 C 59.011719 282.878906 65.839844 289.699219 74.257812 289.699219 C 82.675781 289.699219 106.921875 289.699219 106.921875 289.699219 L 106.921875 291.875 L 137.410156 291.875 Z M 137.410156 289.699219 "/>
<path style=" stroke:none;fill-rule:nonzero;fill:rgb(27.839661%,16.859436%,16.079712%);fill-opacity:1;" d="M 145.035156 270.109375 C 144.433594 270.109375 143.945312 269.625 143.945312 269.023438 C 143.945312 263.699219 148.277344 259.367188 153.605469 259.367188 C 153.753906 259.40625 156.816406 259.363281 159.023438 259.960938 C 159.601562 260.117188 159.949219 260.710938 159.789062 261.292969 C 159.632812 261.875 159.035156 262.21875 158.457031 262.058594 C 156.523438 261.535156 153.667969 261.535156 153.609375 261.542969 C 149.480469 261.542969 146.121094 264.898438 146.121094 269.023438 C 146.121094 269.625 145.636719 270.109375 145.035156 270.109375 Z M 115.632812 287.523438 C 115.347656 287.523438 115.066406 287.578125 114.800781 287.6875 C 114.535156 287.796875 114.300781 287.957031 114.09375 288.160156 C 113.890625 288.363281 113.734375 288.597656 113.621094 288.867188 C 113.511719 289.132812 113.457031 289.410156 113.457031 289.699219 C 113.457031 289.988281 113.511719 290.265625 113.621094 290.53125 C 113.734375 290.796875 113.890625 291.035156 114.09375 291.238281 C 114.300781 291.441406 114.535156 291.597656 114.800781 291.710938 C 115.066406 291.820312 115.347656 291.875 115.632812 291.875 C 115.921875 291.875 116.203125 291.820312 116.46875 291.710938 C 116.734375 291.597656 116.96875 291.441406 117.175781 291.238281 C 117.378906 291.035156 117.535156 290.796875 117.648438 290.53125 C 117.757812 290.265625 117.8125 289.988281 117.8125 289.699219 C 117.8125 289.410156 117.757812 289.132812 117.648438 288.867188 C 117.535156 288.597656 117.378906 288.363281 117.175781 288.160156 C 116.96875 287.957031 116.734375 287.796875 116.46875 287.6875 C 116.203125 287.578125 115.921875 287.523438 115.632812 287.523438 Z M 115.632812 287.523438 "/>
<path style=" stroke:none;fill-rule:nonzero;fill:rgb(27.839661%,16.859436%,16.079712%);fill-opacity:1;" d="M 152.65625 291.875 L 137.410156 291.875 C 136.210938 291.875 135.234375 290.898438 135.234375 289.699219 C 135.234375 288.496094 136.210938 287.523438 137.410156 287.523438 L 152.65625 287.523438 C 159.859375 287.523438 165.722656 281.664062 165.722656 274.464844 C 165.722656 267.953125 160.824219 262.414062 154.320312 261.582031 C 153.738281 261.503906 153.210938 261.199219 152.855469 260.730469 C 152.503906 260.261719 152.355469 259.667969 152.445312 259.089844 C 152.546875 258.417969 152.65625 257.75 152.65625 257.050781 C 152.65625 249.851562 146.792969 243.992188 139.589844 243.992188 C 135.886719 243.992188 132.457031 245.539062 129.925781 248.347656 C 129.378906 248.953125 128.527344 249.207031 127.746094 248.992188 C 126.953125 248.777344 126.347656 248.140625 126.179688 247.339844 C 124.695312 240.359375 118.425781 235.289062 111.277344 235.289062 C 102.875 235.289062 96.035156 242.121094 96.035156 250.523438 C 96.035156 251.144531 96.125 251.742188 96.214844 252.34375 C 96.339844 253.226562 95.9375 254.25 95.160156 254.691406 C 94.378906 255.136719 93.433594 255.207031 92.738281 254.648438 C 91.148438 253.375 89.28125 252.699219 87.324219 252.699219 C 83.117188 252.699219 79.519531 255.707031 78.773438 259.855469 C 78.566406 261.015625 77.484375 261.796875 76.296875 261.617188 C 75.625 261.515625 74.953125 261.40625 74.257812 261.40625 C 67.054688 261.40625 61.191406 267.265625 61.191406 274.464844 C 61.191406 281.664062 67.054688 287.523438 74.257812 287.523438 L 106.921875 287.523438 C 108.125 287.523438 109.101562 288.496094 109.101562 289.699219 C 109.101562 290.898438 108.125 291.875 106.921875 291.875 L 74.257812 291.875 C 64.648438 291.875 56.835938 284.066406 56.835938 274.464844 C 56.835938 264.859375 64.648438 257.050781 74.257812 257.050781 C 74.515625 257.050781 74.761719 257.0625 75.015625 257.078125 C 76.820312 251.914062 81.710938 248.347656 87.324219 248.347656 C 88.84375 248.347656 90.324219 248.613281 91.726562 249.128906 C 92.445312 238.976562 100.9375 230.933594 111.277344 230.933594 C 119.253906 230.933594 126.375 235.839844 129.367188 243.007812 C 132.328125 240.84375 135.910156 239.640625 139.589844 239.640625 C 149.199219 239.640625 157.011719 247.449219 157.011719 257.050781 C 157.011719 257.261719 157.007812 257.464844 156.996094 257.671875 C 164.585938 259.621094 170.078125 266.492188 170.078125 274.464844 C 170.078125 284.066406 162.265625 291.875 152.65625 291.875 Z M 152.65625 291.875 "/>
<path style=" stroke:none;fill-rule:nonzero;fill:rgb(27.839661%,16.859436%,16.079712%);fill-opacity:1;" d="M 128.699219 287.523438 C 128.007812 287.523438 125.039062 287.523438 124.34375 287.523438 C 123.144531 287.523438 122.167969 288.496094 122.167969 289.699219 C 122.167969 290.898438 123.144531 291.875 124.34375 291.875 C 125.039062 291.875 128.007812 291.875 128.699219 291.875 C 129.902344 291.875 130.878906 290.898438 130.878906 289.699219 C 130.878906 288.496094 129.902344 287.523438 128.699219 287.523438 Z M 128.699219 287.523438 "/>
<path style=" stroke:none;fill-rule:nonzero;fill:rgb(70.979309%,81.17981%,89.408875%);fill-opacity:1;" d="M 199.6875 221.304688 L 182.261719 237.390625 C 182.261719 237.390625 180.902344 238.433594 179.40625 237.78125 L 182.742188 207.902344 Z M 199.6875 221.304688 "/>
<path style=" stroke:none;fill-rule:nonzero;fill:rgb(27.839661%,16.859436%,16.079712%);fill-opacity:1;" d="M 180.421875 239.078125 C 179.957031 239.078125 179.464844 238.988281 178.972656 238.773438 L 178.242188 238.457031 L 181.886719 205.832031 L 201.363281 221.246094 L 183 238.191406 C 182.457031 238.605469 181.507812 239.078125 180.421875 239.078125 Z M 183.605469 209.972656 L 180.601562 236.902344 C 181.160156 236.847656 181.589844 236.53125 181.59375 236.527344 L 198.015625 221.375 Z M 183.605469 209.972656 "/>
<path style=" stroke:none;fill-rule:nonzero;fill:rgb(100%,100%,100%);fill-opacity:1;" d="M 255.96875 141.429688 L 236.875 238.878906 C 236.875 238.878906 234.203125 245.640625 226.859375 242.390625 L 182.796875 208.195312 L 166.773438 200.355469 L 139.800781 191.167969 C 139.800781 191.167969 135.65625 189.683594 135.257812 186.441406 C 134.855469 183.195312 139.929688 181.4375 139.929688 181.4375 L 247.160156 138.863281 C 247.152344 138.859375 255.96875 134.941406 255.96875 141.429688 Z M 255.96875 141.429688 "/>
<path style=" stroke:none;fill-rule:nonzero;fill:rgb(27.839661%,16.859436%,16.079712%);fill-opacity:1;" d="M 230.613281 244.363281 C 229.296875 244.363281 227.890625 244.035156 226.421875 243.382812 L 182.128906 209.054688 L 166.292969 201.335938 L 139.445312 192.195312 C 139.238281 192.121094 134.652344 190.4375 134.175781 186.570312 C 133.671875 182.496094 139.328125 180.492188 139.566406 180.40625 L 246.75 137.851562 L 246.761719 137.878906 C 248.167969 137.097656 251.757812 136.25 253.878906 136.804688 C 255.0625 137.121094 257.050781 138.148438 257.050781 141.429688 L 257.03125 141.640625 L 237.9375 239.085938 C 237.832031 239.410156 236.570312 242.535156 233.417969 243.824219 C 232.535156 244.179688 231.597656 244.363281 230.613281 244.363281 Z M 248.125 139.640625 L 248.125 139.652344 L 247.5625 139.878906 L 140.332031 182.449219 C 140.242188 182.480469 136.058594 184.011719 136.335938 186.308594 C 136.648438 188.839844 140.128906 190.132812 140.164062 190.144531 L 167.117188 199.328125 L 183.265625 207.21875 L 227.523438 241.535156 C 229.296875 242.289062 231.070312 242.425781 232.574219 241.8125 C 234.855469 240.886719 235.84375 238.496094 235.859375 238.46875 L 254.875 141.328125 C 254.847656 139.753906 254.191406 139.328125 253.96875 139.191406 C 252.515625 138.246094 249.496094 139.125 248.125 139.640625 Z M 248.125 139.640625 "/>
<path style=" stroke:none;fill-rule:nonzero;fill:rgb(82.348633%,89.7995%,94.509888%);fill-opacity:1;" d="M 179.402344 237.777344 C 179.402344 237.777344 178.117188 237.65625 176.511719 232.519531 C 174.910156 227.382812 166.761719 200.351562 166.761719 200.351562 L 231.53125 158.722656 C 231.53125 158.722656 235.265625 156.421875 235.136719 158.722656 C 235.136719 158.722656 235.800781 159.125 233.796875 161.019531 C 231.796875 162.914062 182.917969 207.378906 182.917969 207.378906 Z M 179.402344 237.777344 "/>
<path style=" stroke:none;fill-rule:nonzero;fill:rgb(27.839661%,16.859436%,16.079712%);fill-opacity:1;" d="M 180.363281 238.964844 L 179.296875 238.867188 C 178.382812 238.773438 176.976562 237.664062 175.472656 232.839844 C 173.871094 227.710938 165.722656 200.667969 165.722656 200.667969 L 165.484375 199.882812 L 166.175781 199.4375 L 230.941406 157.808594 C 231.835938 157.257812 234.011719 156.089844 235.339844 156.882812 C 235.644531 157.066406 236.113281 157.472656 236.210938 158.289062 L 236.324219 158.816406 C 236.410156 159.644531 235.863281 160.566406 234.550781 161.8125 C 232.628906 163.636719 188.449219 203.824219 183.957031 207.914062 Z M 168.039062 200.824219 C 169.390625 205.300781 176.109375 227.582031 177.550781 232.191406 C 177.945312 233.445312 178.308594 234.363281 178.625 235.03125 L 181.886719 206.847656 L 182.1875 206.570312 C 182.675781 206.125 231.082031 162.089844 233.050781 160.226562 C 233.59375 159.714844 233.878906 159.363281 234.019531 159.152344 L 234.039062 158.804688 C 233.578125 158.894531 232.753906 159.242188 232.09375 159.644531 Z M 168.039062 200.824219 "/>
<path style=" stroke:none;fill-rule:nonzero;fill:rgb(27.839661%,16.859436%,16.079712%);fill-opacity:1;" d="M 230.609375 245.453125 C 229.144531 245.453125 227.59375 245.09375 225.976562 244.382812 L 225.578125 244.15625 L 198.964844 224.902344 L 183.738281 238.984375 C 183.355469 239.289062 181.257812 240.816406 178.757812 239.863281 C 176.304688 239.175781 174.914062 234.707031 174.425781 233.160156 C 173.035156 228.710938 166.71875 207.773438 165.070312 202.292969 L 164.996094 202.050781 L 139.089844 193.226562 C 138.835938 193.132812 133.644531 191.222656 133.089844 186.699219 C 132.492188 181.851562 138.523438 179.613281 139.210938 179.375 L 246.347656 136.839844 L 246.359375 136.875 C 248.296875 135.84375 252.089844 135.199219 254.15625 135.75 C 256.691406 136.429688 258.140625 138.496094 258.140625 141.425781 L 239.011719 239.292969 C 238.75 240.050781 237.347656 243.382812 233.835938 244.824219 C 232.8125 245.242188 231.738281 245.453125 230.609375 245.453125 Z M 227.941406 240.484375 C 229.574219 241.167969 230.988281 241.273438 232.152344 240.808594 C 234 240.066406 234.84375 238.078125 234.851562 238.054688 L 253.828125 141.007812 C 253.789062 140.9375 253.71875 140.316406 253.386719 140.105469 C 252.582031 139.578125 250.480469 139.96875 248.898438 140.511719 L 140.734375 183.457031 C 139.425781 183.917969 137.300781 185.1875 137.421875 186.164062 C 137.609375 187.707031 139.792969 188.84375 140.542969 189.121094 L 168.441406 198.628906 L 168.800781 199.589844 C 168.800781 199.59375 168.96875 200.117188 169.246094 201.039062 C 170.898438 206.515625 177.203125 227.421875 178.59375 231.871094 C 179.441406 234.589844 180.105469 235.539062 180.328125 235.800781 C 180.59375 235.878906 180.925781 235.667969 180.933594 235.664062 L 198.628906 219.28125 Z M 227.941406 240.484375 "/>
</g>
</svg>
